<svg xmlns="http://www.w3.org/2000/svg" xmlns:xlink="http://www.w3.org/1999/xlink" width="500" zoomAndPan="magnify" viewBox="0 0 375 374.999991" height="500" preserveAspectRatio="xMidYMid meet" version="1.2"><defs/><g id="90bb693a14"><g style="fill:#000000;fill-opacity:1;"><g transform="translate(99.574561, 239.746669)"><path style="stroke:none" d="M 80.859375 -26.875 L 30.8125 -135.9375 L 30.8125 -49.328125 C 30.8125 -41.367188 31.6875 -36.394531 33.4375 -34.40625 C 35.75 -31.769531 39.453125 -30.453125 44.546875 -30.453125 L 49.21875 -30.453125 L 49.21875 -26.875 L 4.0625 -26.875 L 4.0625 -30.453125 L 8.59375 -30.453125 C 14.09375 -30.453125 18 -32.085938 20.3125 -35.359375 C 21.738281 -37.429688 22.453125 -42.085938 22.453125 -49.328125 L 22.453125 -134.015625 C 22.453125 -139.753906 21.816406 -143.894531 20.546875 -146.4375 C 19.585938 -148.269531 17.910156 -149.800781 15.515625 -151.03125 C 13.128906 -152.269531 9.3125 -152.890625 4.0625 -152.890625 L 4.0625 -156.46875 L 40.734375 -156.46875 L 87.796875 -55.0625 L 134.015625 -156.46875 L 170.6875 -156.46875 L 170.6875 -152.890625 L 166.265625 -152.890625 C 160.691406 -152.890625 156.75 -151.257812 154.4375 -148 C 153.082031 -145.925781 152.40625 -141.265625 152.40625 -134.015625 L 152.40625 -49.328125 C 152.40625 -41.367188 153.285156 -36.394531 155.046875 -34.40625 C 157.429688 -31.769531 161.171875 -30.453125 166.265625 -30.453125 L 170.6875 -30.453125 L 170.6875 -26.875 L 115.625 -26.875 L 115.625 -30.453125 L 120.28125 -30.453125 C 125.78125 -30.453125 129.644531 -32.085938 131.875 -35.359375 C 133.300781 -37.429688 134.015625 -42.085938 134.015625 -49.328125 L 134.015625 -135.9375 L 84.09375 -26.875 Z M 80.859375 -26.875 "/></g></g><g style="fill:#ffffff;fill-opacity:1;"><g transform="translate(121.195713, 283.703396)"><path style="stroke:none" d="M 38.039062 -96.5 L 93.777344 -96.5 L 93.777344 -89.242188 L 86.519531 -89.242188 L 86.519531 -123.523438 C 86.519531 -126.339844 86.429688 -128.644531 86.25 -130.429688 C 86.117188 -131.761719 85.980469 -132.601562 85.839844 -132.949219 C 85.886719 -132.828125 85.9375 -132.738281 85.996094 -132.679688 C 85.878906 -132.796875 85.667969 -132.945312 85.363281 -133.113281 C 83.917969 -133.898438 82.410156 -134.289062 80.835938 -134.289062 L 69.378906 -134.289062 L 69.378906 -152.121094 L 135.203125 -152.121094 L 135.203125 -134.289062 L 123.632812 -134.289062 C 122.003906 -134.289062 120.417969 -133.894531 118.878906 -133.101562 C 118.722656 -133.023438 118.617188 -132.90625 118.5625 -132.753906 C 118.429688 -132.390625 118.304688 -131.550781 118.1875 -130.230469 C 118.03125 -128.492188 117.953125 -126.253906 117.953125 -123.523438 L 117.953125 -46.113281 C 117.953125 -43.335938 118.042969 -41.0625 118.21875 -39.296875 C 118.351562 -37.980469 118.488281 -37.148438 118.632812 -36.796875 C 118.582031 -36.917969 118.53125 -37.007812 118.472656 -37.070312 C 118.589844 -36.949219 118.800781 -36.804688 119.105469 -36.632812 C 120.550781 -35.847656 122.058594 -35.457031 123.632812 -35.457031 L 135.203125 -35.457031 L 135.203125 -17.625 L 69.378906 -17.625 L 69.378906 -35.457031 L 80.835938 -35.457031 C 83.367188 -35.457031 85.050781 -35.980469 85.882812 -37.027344 C 85.773438 -36.890625 85.6875 -36.761719 85.625 -36.640625 C 85.632812 -36.652344 85.648438 -36.699219 85.675781 -36.777344 C 85.8125 -37.179688 85.941406 -37.738281 86.058594 -38.460938 C 86.363281 -40.339844 86.519531 -42.890625 86.519531 -46.113281 L 86.519531 -82.605469 L 93.777344 -82.605469 L 93.777344 -75.347656 L 38.039062 -75.347656 L 38.039062 -82.605469 L 45.296875 -82.605469 L 45.296875 -46.113281 C 45.296875 -43.3125 45.378906 -41.019531 45.542969 -39.230469 C 45.671875 -37.859375 45.804688 -36.976562 45.953125 -36.582031 L 39.148438 -34.058594 L 45.886719 -36.753906 C 45.8125 -36.941406 45.738281 -37.070312 45.660156 -37.144531 C 45.785156 -37.019531 46.015625 -36.871094 46.347656 -36.691406 C 47.820312 -35.867188 49.363281 -35.457031 50.980469 -35.457031 L 62.550781 -35.457031 L 62.550781 -17.625 L -3.386719 -17.625 L -3.386719 -35.457031 L 8.074219 -35.457031 C 10.703125 -35.457031 12.398438 -35.949219 13.15625 -36.9375 C 13.027344 -36.765625 12.933594 -36.621094 12.878906 -36.507812 C 12.886719 -36.527344 12.90625 -36.582031 12.9375 -36.667969 C 13.074219 -37.085938 13.199219 -37.664062 13.3125 -38.402344 C 13.605469 -40.300781 13.753906 -42.871094 13.753906 -46.113281 L 13.753906 -123.523438 C 13.753906 -126.363281 13.671875 -128.6875 13.507812 -130.496094 C 13.382812 -131.882812 13.246094 -132.773438 13.101562 -133.167969 L 19.90625 -135.6875 L 13.167969 -132.992188 C 13.226562 -132.839844 13.285156 -132.738281 13.34375 -132.679688 C 13.226562 -132.796875 13.015625 -132.945312 12.710938 -133.113281 C 11.265625 -133.898438 9.71875 -134.289062 8.074219 -134.289062 L -3.386719 -134.289062 L -3.386719 -152.121094 L 62.550781 -152.121094 L 62.550781 -134.289062 L 50.980469 -134.289062 C 49.304688 -134.289062 47.746094 -133.90625 46.300781 -133.144531 C 46.09375 -133.035156 45.964844 -132.90625 45.90625 -132.753906 C 45.777344 -132.390625 45.652344 -131.550781 45.53125 -130.230469 C 45.375 -128.492188 45.296875 -126.253906 45.296875 -123.523438 L 45.296875 -89.242188 L 38.039062 -89.242188 Z M 30.785156 -81.984375 L 30.785156 -123.523438 C 30.785156 -130.277344 31.28125 -135.015625 32.273438 -137.734375 C 33.621094 -141.417969 36.03125 -144.164062 39.511719 -145.972656 C 43.078125 -147.859375 46.902344 -148.804688 50.980469 -148.804688 L 55.292969 -148.804688 L 55.292969 -141.546875 L 48.035156 -141.546875 L 48.035156 -144.867188 L 55.292969 -144.867188 L 55.292969 -137.609375 L 3.871094 -137.609375 L 3.871094 -144.867188 L 11.128906 -144.867188 L 11.128906 -141.546875 L 3.871094 -141.546875 L 3.871094 -148.804688 L 8.074219 -148.804688 C 12.175781 -148.804688 16.085938 -147.796875 19.800781 -145.777344 C 23.136719 -143.910156 25.417969 -141.445312 26.644531 -138.382812 L 26.679688 -138.296875 L 26.710938 -138.207031 C 27.75 -135.402344 28.269531 -130.507812 28.269531 -123.523438 L 28.269531 -46.113281 C 28.269531 -42.128906 28.066406 -38.820312 27.65625 -36.1875 C 27.121094 -32.707031 26.121094 -30.007812 24.664062 -28.085938 C 22.746094 -25.59375 20.265625 -23.746094 17.226562 -22.535156 C 14.558594 -21.472656 11.507812 -20.941406 8.074219 -20.941406 L 3.871094 -20.941406 L 3.871094 -28.199219 L 11.128906 -28.199219 L 11.128906 -24.882812 L 3.871094 -24.882812 L 3.871094 -32.140625 L 55.292969 -32.140625 L 55.292969 -24.882812 L 48.035156 -24.882812 L 48.035156 -28.199219 L 55.292969 -28.199219 L 55.292969 -20.941406 L 50.980469 -20.941406 C 46.84375 -20.941406 43.007812 -21.929688 39.464844 -23.910156 C 36.003906 -25.773438 33.652344 -28.257812 32.410156 -31.363281 L 32.375 -31.453125 L 32.339844 -31.539062 C 31.304688 -34.34375 30.785156 -39.203125 30.785156 -46.113281 L 30.785156 -89.863281 L 101.03125 -89.863281 L 101.03125 -46.113281 C 101.03125 -42.109375 100.816406 -38.78125 100.386719 -36.128906 C 99.8125 -32.609375 98.765625 -29.898438 97.246094 -27.996094 C 95.304688 -25.558594 92.851562 -23.738281 89.875 -22.542969 C 87.21875 -21.476562 84.207031 -20.941406 80.835938 -20.941406 L 76.636719 -20.941406 L 76.636719 -28.199219 L 83.890625 -28.199219 L 83.890625 -24.882812 L 76.636719 -24.882812 L 76.636719 -32.140625 L 127.945312 -32.140625 L 127.945312 -24.882812 L 120.6875 -24.882812 L 120.6875 -28.199219 L 127.945312 -28.199219 L 127.945312 -20.941406 L 123.632812 -20.941406 C 119.601562 -20.941406 115.730469 -21.949219 112.015625 -23.96875 C 108.679688 -25.835938 106.402344 -28.289062 105.191406 -31.320312 C 104.023438 -34.191406 103.4375 -39.121094 103.4375 -46.113281 L 103.4375 -123.523438 C 103.4375 -130.277344 103.933594 -135.015625 104.929688 -137.734375 C 106.273438 -141.417969 108.710938 -144.175781 112.242188 -146.011719 C 115.863281 -147.875 119.660156 -148.804688 123.632812 -148.804688 L 127.945312 -148.804688 L 127.945312 -141.546875 L 120.6875 -141.546875 L 120.6875 -144.867188 L 127.945312 -144.867188 L 127.945312 -137.609375 L 76.636719 -137.609375 L 76.636719 -144.867188 L 83.890625 -144.867188 L 83.890625 -141.546875 L 76.636719 -141.546875 L 76.636719 -148.804688 L 80.835938 -148.804688 C 84.867188 -148.804688 88.738281 -147.796875 92.457031 -145.777344 C 95.792969 -143.910156 98.066406 -141.460938 99.28125 -138.425781 C 100.449219 -135.558594 101.03125 -130.589844 101.03125 -123.523438 L 101.03125 -81.984375 Z M 30.785156 -81.984375 "/></g></g><g style="fill:#ad9551;fill-opacity:1;"><g transform="translate(121.195713, 283.703396)"><path style="stroke:none" d="M 38.046875 -89.234375 L 93.765625 -89.234375 L 93.765625 -123.515625 C 93.765625 -129.640625 93.363281 -133.695312 92.5625 -135.6875 C 91.96875 -137.15625 90.75 -138.40625 88.90625 -139.4375 C 86.320312 -140.84375 83.628906 -141.546875 80.828125 -141.546875 L 76.625 -141.546875 L 76.625 -144.859375 L 127.9375 -144.859375 L 127.9375 -141.546875 L 123.625 -141.546875 C 120.820312 -141.546875 118.132812 -140.878906 115.5625 -139.546875 C 113.71875 -138.585938 112.441406 -137.148438 111.734375 -135.234375 C 111.035156 -133.316406 110.6875 -129.410156 110.6875 -123.515625 L 110.6875 -46.109375 C 110.6875 -40.066406 111.09375 -36.050781 111.90625 -34.0625 C 112.5 -32.582031 113.71875 -31.328125 115.5625 -30.296875 C 118.132812 -28.898438 120.820312 -28.203125 123.625 -28.203125 L 127.9375 -28.203125 L 127.9375 -24.875 L 76.625 -24.875 L 76.625 -28.203125 L 80.828125 -28.203125 C 85.691406 -28.203125 89.269531 -29.640625 91.5625 -32.515625 C 93.03125 -34.359375 93.765625 -38.890625 93.765625 -46.109375 L 93.765625 -82.609375 L 38.046875 -82.609375 L 38.046875 -46.109375 C 38.046875 -40.066406 38.410156 -36.050781 39.140625 -34.0625 C 39.734375 -32.582031 40.988281 -31.328125 42.90625 -30.296875 C 45.414062 -28.898438 48.109375 -28.203125 50.984375 -28.203125 L 55.296875 -28.203125 L 55.296875 -24.875 L 3.875 -24.875 L 3.875 -28.203125 L 8.078125 -28.203125 C 13.085938 -28.203125 16.695312 -29.640625 18.90625 -32.515625 C 20.3125 -34.359375 21.015625 -38.890625 21.015625 -46.109375 L 21.015625 -123.515625 C 21.015625 -129.640625 20.644531 -133.695312 19.90625 -135.6875 C 19.3125 -137.15625 18.09375 -138.40625 16.25 -139.4375 C 13.675781 -140.84375 10.953125 -141.546875 8.078125 -141.546875 L 3.875 -141.546875 L 3.875 -144.859375 L 55.296875 -144.859375 L 55.296875 -141.546875 L 50.984375 -141.546875 C 48.109375 -141.546875 45.414062 -140.878906 42.90625 -139.546875 C 41.0625 -138.585938 39.789062 -137.148438 39.09375 -135.234375 C 38.394531 -133.316406 38.046875 -129.410156 38.046875 -123.515625 Z M 38.046875 -89.234375 "/></g></g><g style="fill:#000000;fill-opacity:1;"><g transform="translate(114.608335, 288.587559)"><path style="stroke:none" d="M 11.078125 -7.203125 C 11.992188 -7.003906 12.703125 -6.609375 13.203125 -6.015625 C 13.703125 -5.421875 13.953125 -4.660156 13.953125 -3.734375 C 13.953125 -2.535156 13.507812 -1.613281 12.625 -0.96875 C 11.738281 -0.320312 10.429688 0 8.703125 0 L 2.28125 0 L 2.28125 -13.96875 L 8.296875 -13.96875 C 9.859375 -13.96875 11.066406 -13.65625 11.921875 -13.03125 C 12.773438 -12.40625 13.203125 -11.519531 13.203125 -10.375 C 13.203125 -9.601562 13.015625 -8.945312 12.640625 -8.40625 C 12.265625 -7.875 11.742188 -7.472656 11.078125 -7.203125 Z M 3.75 -12.75 L 3.75 -7.6875 L 8.203125 -7.6875 C 9.328125 -7.6875 10.195312 -7.898438 10.8125 -8.328125 C 11.425781 -8.765625 11.734375 -9.394531 11.734375 -10.21875 C 11.734375 -11.039062 11.425781 -11.664062 10.8125 -12.09375 C 10.195312 -12.53125 9.328125 -12.75 8.203125 -12.75 Z M 8.671875 -1.21875 C 9.929688 -1.21875 10.878906 -1.429688 11.515625 -1.859375 C 12.148438 -2.285156 12.46875 -2.945312 12.46875 -3.84375 C 12.46875 -5.59375 11.203125 -6.46875 8.671875 -6.46875 L 3.75 -6.46875 L 3.75 -1.21875 Z M 8.671875 -1.21875 "/></g></g><g style="fill:#000000;fill-opacity:1;"><g transform="translate(135.723519, 288.587559)"><path style="stroke:none" d="M 7.90625 0.125 C 6.09375 0.125 4.679688 -0.394531 3.671875 -1.4375 C 2.660156 -2.476562 2.15625 -3.988281 2.15625 -5.96875 L 2.15625 -13.96875 L 3.625 -13.96875 L 3.625 -6.03125 C 3.625 -4.40625 3.988281 -3.191406 4.71875 -2.390625 C 5.457031 -1.597656 6.519531 -1.203125 7.90625 -1.203125 C 9.300781 -1.203125 10.363281 -1.597656 11.09375 -2.390625 C 11.820312 -3.191406 12.1875 -4.40625 12.1875 -6.03125 L 12.1875 -13.96875 L 13.625 -13.96875 L 13.625 -5.96875 C 13.625 -3.988281 13.117188 -2.476562 12.109375 -1.4375 C 11.109375 -0.394531 9.707031 0.125 7.90625 0.125 Z M 7.90625 0.125 "/></g></g><g style="fill:#000000;fill-opacity:1;"><g transform="translate(157.597068, 288.587559)"><path style="stroke:none" d="M 6.125 0.125 C 5.082031 0.125 4.085938 -0.0390625 3.140625 -0.375 C 2.191406 -0.707031 1.457031 -1.148438 0.9375 -1.703125 L 1.515625 -2.828125 C 2.023438 -2.328125 2.695312 -1.921875 3.53125 -1.609375 C 4.363281 -1.296875 5.226562 -1.140625 6.125 -1.140625 C 7.375 -1.140625 8.3125 -1.367188 8.9375 -1.828125 C 9.5625 -2.285156 9.875 -2.878906 9.875 -3.609375 C 9.875 -4.171875 9.703125 -4.617188 9.359375 -4.953125 C 9.023438 -5.285156 8.609375 -5.539062 8.109375 -5.71875 C 7.617188 -5.894531 6.9375 -6.09375 6.0625 -6.3125 C 5.007812 -6.570312 4.171875 -6.820312 3.546875 -7.0625 C 2.921875 -7.3125 2.382812 -7.6875 1.9375 -8.1875 C 1.5 -8.695312 1.28125 -9.382812 1.28125 -10.25 C 1.28125 -10.957031 1.460938 -11.597656 1.828125 -12.171875 C 2.203125 -12.753906 2.773438 -13.21875 3.546875 -13.5625 C 4.316406 -13.914062 5.273438 -14.09375 6.421875 -14.09375 C 7.222656 -14.09375 8.003906 -13.976562 8.765625 -13.75 C 9.535156 -13.53125 10.195312 -13.226562 10.75 -12.84375 L 10.25 -11.671875 C 9.664062 -12.054688 9.039062 -12.34375 8.375 -12.53125 C 7.707031 -12.726562 7.054688 -12.828125 6.421875 -12.828125 C 5.203125 -12.828125 4.28125 -12.585938 3.65625 -12.109375 C 3.039062 -11.640625 2.734375 -11.035156 2.734375 -10.296875 C 2.734375 -9.734375 2.898438 -9.28125 3.234375 -8.9375 C 3.578125 -8.601562 4.003906 -8.347656 4.515625 -8.171875 C 5.023438 -7.992188 5.710938 -7.796875 6.578125 -7.578125 C 7.609375 -7.328125 8.4375 -7.078125 9.0625 -6.828125 C 9.695312 -6.585938 10.234375 -6.21875 10.671875 -5.71875 C 11.109375 -5.21875 11.328125 -4.539062 11.328125 -3.6875 C 11.328125 -2.988281 11.140625 -2.347656 10.765625 -1.765625 C 10.390625 -1.179688 9.804688 -0.71875 9.015625 -0.375 C 8.234375 -0.0390625 7.269531 0.125 6.125 0.125 Z M 6.125 0.125 "/></g></g><g style="fill:#000000;fill-opacity:1;"><g transform="translate(175.938216, 288.587559)"><path style="stroke:none" d="M 2.28125 -13.96875 L 3.75 -13.96875 L 3.75 0 L 2.28125 0 Z M 2.28125 -13.96875 "/></g></g><g style="fill:#000000;fill-opacity:1;"><g transform="translate(188.0328, 288.587559)"><path style="stroke:none" d="M 13.953125 -13.96875 L 13.953125 0 L 12.734375 0 L 3.75 -11.328125 L 3.75 0 L 2.28125 0 L 2.28125 -13.96875 L 3.484375 -13.96875 L 12.484375 -2.640625 L 12.484375 -13.96875 Z M 13.953125 -13.96875 "/></g></g><g style="fill:#000000;fill-opacity:1;"><g transform="translate(210.325443, 288.587559)"><path style="stroke:none" d="M 12.15625 -1.28125 L 12.15625 0 L 2.28125 0 L 2.28125 -13.96875 L 11.859375 -13.96875 L 11.859375 -12.6875 L 3.75 -12.6875 L 3.75 -7.71875 L 10.96875 -7.71875 L 10.96875 -6.46875 L 3.75 -6.46875 L 3.75 -1.28125 Z M 12.15625 -1.28125 "/></g></g><g style="fill:#000000;fill-opacity:1;"><g transform="translate(229.744269, 288.587559)"><path style="stroke:none" d="M 6.125 0.125 C 5.082031 0.125 4.085938 -0.0390625 3.140625 -0.375 C 2.191406 -0.707031 1.457031 -1.148438 0.9375 -1.703125 L 1.515625 -2.828125 C 2.023438 -2.328125 2.695312 -1.921875 3.53125 -1.609375 C 4.363281 -1.296875 5.226562 -1.140625 6.125 -1.140625 C 7.375 -1.140625 8.3125 -1.367188 8.9375 -1.828125 C 9.5625 -2.285156 9.875 -2.878906 9.875 -3.609375 C 9.875 -4.171875 9.703125 -4.617188 9.359375 -4.953125 C 9.023438 -5.285156 8.609375 -5.539062 8.109375 -5.71875 C 7.617188 -5.894531 6.9375 -6.09375 6.0625 -6.3125 C 5.007812 -6.570312 4.171875 -6.820312 3.546875 -7.0625 C 2.921875 -7.3125 2.382812 -7.6875 1.9375 -8.1875 C 1.5 -8.695312 1.28125 -9.382812 1.28125 -10.25 C 1.28125 -10.957031 1.460938 -11.597656 1.828125 -12.171875 C 2.203125 -12.753906 2.773438 -13.21875 3.546875 -13.5625 C 4.316406 -13.914062 5.273438 -14.09375 6.421875 -14.09375 C 7.222656 -14.09375 8.003906 -13.976562 8.765625 -13.75 C 9.535156 -13.53125 10.195312 -13.226562 10.75 -12.84375 L 10.25 -11.671875 C 9.664062 -12.054688 9.039062 -12.34375 8.375 -12.53125 C 7.707031 -12.726562 7.054688 -12.828125 6.421875 -12.828125 C 5.203125 -12.828125 4.28125 -12.585938 3.65625 -12.109375 C 3.039062 -11.640625 2.734375 -11.035156 2.734375 -10.296875 C 2.734375 -9.734375 2.898438 -9.28125 3.234375 -8.9375 C 3.578125 -8.601562 4.003906 -8.347656 4.515625 -8.171875 C 5.023438 -7.992188 5.710938 -7.796875 6.578125 -7.578125 C 7.609375 -7.328125 8.4375 -7.078125 9.0625 -6.828125 C 9.695312 -6.585938 10.234375 -6.21875 10.671875 -5.71875 C 11.109375 -5.21875 11.328125 -4.539062 11.328125 -3.6875 C 11.328125 -2.988281 11.140625 -2.347656 10.765625 -1.765625 C 10.390625 -1.179688 9.804688 -0.71875 9.015625 -0.375 C 8.234375 -0.0390625 7.269531 0.125 6.125 0.125 Z M 6.125 0.125 "/></g></g><g style="fill:#000000;fill-opacity:1;"><g transform="translate(248.085416, 288.587559)"><path style="stroke:none" d="M 6.125 0.125 C 5.082031 0.125 4.085938 -0.0390625 3.140625 -0.375 C 2.191406 -0.707031 1.457031 -1.148438 0.9375 -1.703125 L 1.515625 -2.828125 C 2.023438 -2.328125 2.695312 -1.921875 3.53125 -1.609375 C 4.363281 -1.296875 5.226562 -1.140625 6.125 -1.140625 C 7.375 -1.140625 8.3125 -1.367188 8.9375 -1.828125 C 9.5625 -2.285156 9.875 -2.878906 9.875 -3.609375 C 9.875 -4.171875 9.703125 -4.617188 9.359375 -4.953125 C 9.023438 -5.285156 8.609375 -5.539062 8.109375 -5.71875 C 7.617188 -5.894531 6.9375 -6.09375 6.0625 -6.3125 C 5.007812 -6.570312 4.171875 -6.820312 3.546875 -7.0625 C 2.921875 -7.3125 2.382812 -7.6875 1.9375 -8.1875 C 1.5 -8.695312 1.28125 -9.382812 1.28125 -10.25 C 1.28125 -10.957031 1.460938 -11.597656 1.828125 -12.171875 C 2.203125 -12.753906 2.773438 -13.21875 3.546875 -13.5625 C 4.316406 -13.914062 5.273438 -14.09375 6.421875 -14.09375 C 7.222656 -14.09375 8.003906 -13.976562 8.765625 -13.75 C 9.535156 -13.53125 10.195312 -13.226562 10.75 -12.84375 L 10.25 -11.671875 C 9.664062 -12.054688 9.039062 -12.34375 8.375 -12.53125 C 7.707031 -12.726562 7.054688 -12.828125 6.421875 -12.828125 C 5.203125 -12.828125 4.28125 -12.585938 3.65625 -12.109375 C 3.039062 -11.640625 2.734375 -11.035156 2.734375 -10.296875 C 2.734375 -9.734375 2.898438 -9.28125 3.234375 -8.9375 C 3.578125 -8.601562 4.003906 -8.347656 4.515625 -8.171875 C 5.023438 -7.992188 5.710938 -7.796875 6.578125 -7.578125 C 7.609375 -7.328125 8.4375 -7.078125 9.0625 -6.828125 C 9.695312 -6.585938 10.234375 -6.21875 10.671875 -5.71875 C 11.109375 -5.21875 11.328125 -4.539062 11.328125 -3.6875 C 11.328125 -2.988281 11.140625 -2.347656 10.765625 -1.765625 C 10.390625 -1.179688 9.804688 -0.71875 9.015625 -0.375 C 8.234375 -0.0390625 7.269531 0.125 6.125 0.125 Z M 6.125 0.125 "/></g></g></g></svg>