<?xml version="1.0" encoding="UTF-8"?>
<svg version="1.1" xmlns="http://www.w3.org/2000/svg" width="231" height="289">
<path d="M0 0 C76.23 0 152.46 0 231 0 C231 95.37 231 190.74 231 289 C154.77 289 78.54 289 0 289 C0 193.63 0 98.26 0 0 Z " fill="#FCFCFB" transform="translate(0,0)"/>
<path d="M0 0 C22.44 0 44.88 0 68 0 C68 1.32 68 2.64 68 4 C66.97519531 4.09796875 65.95039062 4.1959375 64.89453125 4.296875 C63.53375598 4.44702951 62.17308386 4.59812087 60.8125 4.75 C59.80219727 4.8428125 59.80219727 4.8428125 58.77148438 4.9375 C54.04508152 5.49083497 51.17036672 6.40653132 48 10 C45.68849665 16.96355032 45.65682447 23.74145482 45.5859375 31.03125 C45.56829346 32.12405273 45.55064941 33.21685547 45.5324707 34.34277344 C45.46976915 38.39503716 45.42333084 42.4475394 45.375 46.5 C45.25125 55.575 45.1275 64.65 45 74 C69.75 74 94.5 74 120 74 C119.87625 65.6675 119.7525 57.335 119.625 48.75 C119.59100098 46.14448242 119.55700195 43.53896484 119.52197266 40.85449219 C119.48671405 38.75194107 119.45078711 36.64940102 119.4140625 34.546875 C119.40270264 33.48549316 119.39134277 32.42411133 119.37963867 31.33056641 C119.7089434 19.00076734 119.7089434 19.00076734 115.37075806 8.13372803 C110.04018515 4.09943341 103.44793071 4.11821206 97 4 C97 2.68 97 1.36 97 0 C119.44 0 141.88 0 165 0 C165 1.32 165 2.64 165 4 C163.22882813 4.25523438 163.22882813 4.25523438 161.421875 4.515625 C159.86444879 4.75955923 158.30716415 5.0043985 156.75 5.25 C155.97269531 5.35957031 155.19539062 5.46914062 154.39453125 5.58203125 C150.90521732 6.14867197 148.47747049 6.67868338 145.515625 8.671875 C141.66675962 14.58404965 142.84562693 23.26722676 142.83886719 30.05053711 C142.83390228 31.2481517 142.82893738 32.4457663 142.82382202 33.67967224 C142.81176504 36.94829149 142.80426952 40.21687509 142.79981136 43.4855125 C142.79686915 45.53141153 142.79276236 47.57730511 142.78830719 49.62320137 C142.77465683 56.0357647 142.76497672 62.44831539 142.7611053 68.86089224 C142.75662276 76.24297865 142.73905556 83.62488008 142.7101047 91.00691026 C142.68844983 96.72857663 142.67839908 102.45019106 142.67706418 108.17189795 C142.67601938 111.58261192 142.67018065 114.9931514 142.65224457 118.40382195 C142.63516954 122.2093799 142.63706791 126.01448753 142.64355469 129.82006836 C142.62973251 131.49966644 142.62973251 131.49966644 142.6156311 133.2131958 C142.64944677 139.55375504 143.40238422 144.20719792 146 150 C146.33644531 151.19882812 146.33644531 151.19882812 146.6796875 152.421875 C148.64683795 154.77314359 150.9396866 154.74643571 153.86328125 155.0625 C154.60964844 155.124375 155.35601562 155.18625 156.125 155.25 C156.87910156 155.32734375 157.63320312 155.4046875 158.41015625 155.484375 C160.27182671 155.67289859 162.13577938 155.83863238 164 156 C164 156.99 164 157.98 164 159 C141.89 159 119.78 159 97 159 C97 157.68 97 156.36 97 155 C102.28 154.67 107.56 154.34 113 154 C113 153.34 113 152.68 113 152 C113.66 152 114.32 152 115 152 C119.77681682 143.48166452 119.28494137 132.72092068 119.1953125 123.234375 C119.19329834 122.2045752 119.19128418 121.17477539 119.18920898 120.11376953 C119.17887155 116.32579999 119.15095078 112.53789475 119.125 108.75 C119.08375 100.2525 119.0425 91.755 119 83 C82.37 82.505 82.37 82.505 45 82 C45.103125 91.714375 45.20625 101.42875 45.3125 111.4375 C45.33739502 114.48798584 45.36229004 117.53847168 45.38793945 120.68139648 C45.4202472 123.11964427 45.45362343 125.55787823 45.48828125 127.99609375 C45.49452515 129.24555786 45.50076904 130.49502197 45.50720215 131.78234863 C45.61665708 138.46307946 45.78145187 144.97774743 49 151 C51.25696427 152.58612501 51.25696427 152.58612501 54 153 C54.928125 153.350625 55.85625 153.70125 56.8125 154.0625 C60.56837438 155.16716893 64.10838682 155.59741933 68 156 C68 156.99 68 157.98 68 159 C45.56 159 23.12 159 0 159 C0 157.68 0 156.36 0 155 C1.06927734 154.94392578 1.06927734 154.94392578 2.16015625 154.88671875 C10.49266436 154.31723471 10.49266436 154.31723471 18 151 C22.36753264 143.28402567 22.14892462 135.25777147 22.14526367 126.64550781 C22.14862228 125.50977325 22.1519809 124.3740387 22.15544128 123.20388794 C22.1649309 119.45362246 22.16689348 115.70340174 22.16796875 111.953125 C22.17118298 109.34006736 22.17454718 106.7270099 22.17805481 104.11395264 C22.18444229 98.63651235 22.18593812 93.15908414 22.18530273 87.68164062 C22.18470277 81.37078497 22.19524156 75.06001502 22.2110464 68.74918103 C22.2257544 62.6569854 22.22928924 56.56483055 22.22869301 50.4726181 C22.22987024 47.89075114 22.23427757 45.3088835 22.24202538 42.72702789 C22.25186609 39.10863723 22.24893086 35.49046479 22.24291992 31.87207031 C22.25134918 30.28505814 22.25134918 30.28505814 22.25994873 28.66598511 C22.26279018 19.15534942 22.26279018 19.15534942 20 10 C14.29980654 4.76819661 7.46404097 4.15346626 0 4 C0 2.68 0 1.36 0 0 Z " fill="#AC9552" transform="translate(32,80)"/>
<path d="M0 0 C16.17 0 32.34 0 49 0 C54.38889042 9.70000275 54.38889042 9.70000275 56.12353516 13.92675781 C58.06358766 18.51587365 60.22408133 23.01021941 62.32705688 27.52636719 C63.19775929 29.39704173 64.06622678 31.26874127 64.93432617 33.140625 C67.46918675 38.60114103 70.0137963 44.05571249 72.6328125 49.4765625 C73.00768799 50.25596191 73.38256348 51.03536133 73.76879883 51.83837891 C74.44417864 53.23716553 75.1259043 54.63291338 75.81518555 56.02490234 C77.42519483 59.36480116 78 61.19441149 78 65 C69.75 65 61.5 65 53 65 C47.29714098 53.7979555 42.03872365 42.51708262 37 31 C36.67 42.22 36.34 53.44 36 65 C32.37 65 28.74 65 25 65 C24.98018066 63.76958984 24.96036133 62.53917969 24.93994141 61.27148438 C24.86350865 56.67916405 24.77485087 52.08714509 24.68261719 47.49511719 C24.64448243 45.51275612 24.60960331 43.5303295 24.578125 41.54785156 C24.53213605 38.68791376 24.47419928 35.82842118 24.4140625 32.96875 C24.40251129 32.09134155 24.39096008 31.21393311 24.37905884 30.30993652 C24.25098534 24.893849 23.48943937 20.21128385 22 15 C21.77650375 13.93452942 21.77650375 13.93452942 21.54849243 12.84753418 C21.1658938 10.82981929 21.1658938 10.82981929 19.1875 9.8125 C15.44816024 8.42360237 12.24637754 7.87872974 8.25 7.9375 C7.05117187 7.95103516 7.05117187 7.95103516 5.828125 7.96484375 C4.92320312 7.98224609 4.92320312 7.98224609 4 8 C4 7.34 4 6.68 4 6 C2.68 6 1.36 6 0 6 C0 4.02 0 2.04 0 0 Z " fill="#0A0A0A" transform="translate(3,5)"/>
<path d="M0 0 C16.5 0 33 0 50 0 C50 1.65 50 3.3 50 5 C49.154375 5.01417969 48.30875 5.02835938 47.4375 5.04296875 C41.04355723 5.31180498 36.03761929 5.80587425 30.5859375 9.2578125 C25.41530065 14.9378717 25.5350342 21.70715809 25.48828125 28.96484375 C25.47033005 29.99815323 25.45237885 31.03146271 25.43388367 32.09608459 C25.37996774 35.37651565 25.34594459 38.65680275 25.3125 41.9375 C25.27931046 44.16994182 25.24481929 46.4023647 25.20898438 48.63476562 C25.12181635 54.08986234 25.06158616 59.54431528 25 65 C16.75 65 8.5 65 0 65 C-0.33 54.11 -0.66 43.22 -1 32 C-5.95 42.89 -10.9 53.78 -16 65 C-19.96 65 -23.92 65 -28 65 C-27.63894737 61.38947366 -26.87400753 58.51751189 -25.203125 55.33203125 C-22.98888735 51.01139863 -20.97898708 46.6199922 -19 42.1875 C-18.62480225 41.35089844 -18.24960449 40.51429687 -17.86303711 39.65234375 C-15.50329737 34.38373347 -13.15850981 29.10849995 -10.81640625 23.83203125 C-10.54645844 23.22401169 -10.27651062 22.61599213 -9.99838257 21.98954773 C-8.6593867 18.97316723 -7.32183661 15.95615889 -5.98632812 12.93823242 C-5.49712891 11.83455322 -5.00792969 10.73087402 -4.50390625 9.59375 C-4.06892822 8.61083984 -3.6339502 7.62792969 -3.18579102 6.61523438 C-2.17511002 4.38620106 -1.09453786 2.18907571 0 0 Z " fill="#090909" transform="translate(176,5)"/>
<path d="M0 0 C1.06863281 0.01804687 2.13726562 0.03609375 3.23828125 0.0546875 C4.04652344 0.07789062 4.85476562 0.10109375 5.6875 0.125 C5.69963028 1.29771706 5.69963028 1.29771706 5.71200562 2.49412537 C5.79023108 9.89368392 5.87760393 17.29305316 5.97502708 24.69238186 C6.02478614 28.49564975 6.07111635 32.29889258 6.109375 36.10229492 C6.14648748 39.77881927 6.19291432 43.45512286 6.24556351 47.13145638 C6.26397059 48.52789465 6.27912797 49.92437999 6.29084396 51.32089043 C5.7769445 63.69349305 5.7769445 63.69349305 10.07650757 74.78953552 C15.458396 79.25095985 24.08479438 78.71300852 30.6875 79.125 C30.6875 80.775 30.6875 82.425 30.6875 84.125 C16.8275 84.125 2.9675 84.125 -11.3125 84.125 C-11.3125 57.065 -11.3125 30.005 -11.3125 2.125 C-6.73996031 0.29598412 -4.71088207 -0.10353587 0 0 Z " fill="#020202" transform="translate(195.3125,93.875)"/>
<path d="M0 0 C1.98 0 3.96 0 6 0 C7.77913844 3.82237976 9.55725083 7.64523472 11.33447266 11.46850586 C11.93739081 12.76518182 12.54057415 14.06173452 13.14404297 15.3581543 C18.80850241 27.52781799 18.80850241 27.52781799 21.171875 32.91015625 C22.97707747 37.01355015 24.96629742 41.00522707 27 45 C28.15242376 42.49329172 29.3041031 39.98624578 30.45483398 37.47875977 C31.44872274 35.3143964 32.44434753 33.15082944 33.44165039 30.98803711 C35.8839122 25.67831395 38.29305754 20.3610432 40.59375 14.98828125 C41.18941772 13.6120459 41.18941772 13.6120459 41.79711914 12.20800781 C42.54557051 10.47171601 43.28216743 8.73025617 44.00561523 6.98339844 C44.34278564 6.20641602 44.67995605 5.42943359 45.02734375 4.62890625 C45.31343506 3.94900635 45.59952637 3.26910645 45.89428711 2.56860352 C47 1 47 1 48.93579102 0.14819336 C51 0 51 0 54 2 C56.29032543 12.68400208 51.79398441 21.30289592 47.125 30.5 C46.46506954 31.84258355 45.80750199 33.18633124 45.15234375 34.53125 C43.95339735 36.99041256 42.73939847 39.43930778 41.51220703 41.88476562 C40.22503393 44.53641702 39.09469377 47.26326559 38 50 C25.79 50 13.58 50 1 50 C-1.25028102 44.37429744 -1.25028102 44.37429744 -1.24291992 40.5168457 C-1.24599655 39.66278641 -1.24907318 38.80872711 -1.25224304 37.92878723 C-1.24505753 37.02029526 -1.23787201 36.11180328 -1.23046875 35.17578125 C-1.23001053 34.2331694 -1.22955231 33.29055756 -1.2290802 32.31938171 C-1.22606644 30.33326961 -1.21820642 28.34715969 -1.20581055 26.36108398 C-1.18750242 23.3129037 -1.18530135 20.26502652 -1.18554688 17.21679688 C-1.18063328 15.28645569 -1.17480566 13.35611658 -1.16796875 11.42578125 C-1.16685593 10.51121658 -1.1657431 9.59665192 -1.16459656 8.65437317 C-1.15821671 7.80977036 -1.15183685 6.96516754 -1.14526367 6.0949707 C-1.14145187 5.35060257 -1.13764008 4.60623444 -1.13371277 3.83930969 C-1 2 -1 2 0 0 Z " fill="#0A0A0A" transform="translate(88,94)"/>
<path d="M0 0 C3.63 0 7.26 0 11 0 C11.01213028 1.17271706 11.01213028 1.17271706 11.02450562 2.36912537 C11.10273108 9.76868392 11.19010393 17.16805316 11.28752708 24.56738186 C11.33728614 28.37064975 11.38361635 32.17389258 11.421875 35.97729492 C11.45898748 39.65381927 11.50541432 43.33012286 11.55806351 47.00645638 C11.57647059 48.40289465 11.59162797 49.79937999 11.60334396 51.19589043 C11.66856066 58.70674589 11.77045982 65.78796703 14 73 C14.77843765 73.61124977 14.77843765 73.61124977 15.57260132 74.23484802 C17 76 17 76 17 84 C3.14 84 -10.72 84 -25 84 C-25 82.35 -25 80.7 -25 79 C-23.90300781 78.90203125 -22.80601563 78.8040625 -21.67578125 78.703125 C-20.22126122 78.552981 -18.76683882 78.40188917 -17.3125 78.25 C-16.59126953 78.188125 -15.87003906 78.12625 -15.12695312 78.0625 C-10.31339236 77.53498649 -7.53449 76.55461044 -4 73 C-1.15579068 67.5960023 -0.88052716 61.63690149 -0.79467773 55.62744141 C-0.77473251 54.38660797 -0.75478729 53.14577454 -0.73423767 51.86734009 C-0.71725879 50.52874879 -0.70037979 49.19015623 -0.68359375 47.8515625 C-0.66299822 46.47007665 -0.6420011 45.08859673 -0.62062073 43.7071228 C-0.56566822 40.08718702 -0.51614176 36.46719692 -0.46777344 32.84716797 C-0.41736139 29.14676125 -0.36177862 25.44643253 -0.30664062 21.74609375 C-0.19938759 14.49746205 -0.097871 7.24876509 0 0 Z " fill="#090909" transform="translate(28,94)"/>
<path d="M0 0 C8.71073542 0.10792528 17.42139225 0.22064088 26.13198757 0.33933926 C30.17740288 0.39431801 34.22282567 0.44769547 38.26831055 0.49731445 C42.17817483 0.54533058 46.08795996 0.59768224 49.99772835 0.65294075 C51.48350088 0.67319697 52.96929497 0.69193565 54.45510674 0.70907402 C62.02449902 0.7973564 69.48961415 0.97403091 77 2 C76.79375 2.61875 76.5875 3.2375 76.375 3.875 C76.189375 4.926875 76.189375 4.926875 76 6 C76.99 6.99 76.99 6.99 78 8 C39.885 8.495 39.885 8.495 1 9 C0.67 24.51 0.34 40.02 0 56 C-0.66 56 -1.32 56 -2 56 C-2.33 56.66 -2.66 57.32 -3 58 C-3.05069859 51.37975331 -3.08573295 44.75955666 -3.10986328 38.13916016 C-3.11992253 35.88686248 -3.13357146 33.63457786 -3.15087891 31.38232422 C-3.17513031 28.14547502 -3.1864839 24.90879845 -3.1953125 21.671875 C-3.20563507 20.66445251 -3.21595764 19.65703003 -3.22659302 18.61907959 C-3.22674408 17.67840637 -3.22689514 16.73773315 -3.22705078 15.76855469 C-3.231492 14.94248718 -3.23593323 14.11641968 -3.24050903 13.26531982 C-3 11 -3 11 -2.04830933 9.13946533 C-0.59773251 6.17902347 -0.37517587 3.25152422 0 0 Z " fill="#A68F49" transform="translate(76,154)"/>
<path d="M0 0 C0.99 0.33 1.98 0.66 3 1 C3 39.61 3 78.22 3 118 C1.02 118.99 1.02 118.99 -1 120 C-0.835 119.21625 -0.67 118.4325 -0.5 117.625 C0.0623707 115.11791961 0.0623707 115.11791961 0 113 C-0.33 113 -0.66 113 -1 113 C-1.02333003 98.41428805 -1.04091327 83.82857897 -1.05181217 69.24285221 C-1.05697491 62.47089579 -1.06401718 55.69895095 -1.07543945 48.92700195 C-1.08644714 42.39775574 -1.09227625 35.86851706 -1.09487724 29.33926201 C-1.09673199 26.84206388 -1.10035354 24.34486645 -1.10573006 21.84767342 C-1.11293684 18.36335931 -1.1139911 14.87909569 -1.11352539 11.39477539 C-1.11712067 10.35108795 -1.12071594 9.30740051 -1.12442017 8.23208618 C-1.1230455 7.28832626 -1.12167084 6.34456635 -1.12025452 5.37220764 C-1.12117631 4.54720292 -1.1220981 3.7221982 -1.12304783 2.87219334 C-1 1 -1 1 0 0 Z " fill="#AB8F4B" transform="translate(170,106)"/>
<path d="M0 0 C22.77 0 45.54 0 69 0 C69.495 2.97 69.495 2.97 70 6 C66.67288007 8.21807995 65.02537517 8.11181598 61.140625 8.00390625 C58.01992149 7.99821154 55.0748065 8.48753225 52 9 C51.566875 10.2065625 51.566875 10.2065625 51.125 11.4375 C50 14 50 14 48 15 C47.67 58.56 47.34 102.12 47 147 C45.08351902 143.16703804 44.75031056 141.91566547 44.75276184 137.85856628 C44.74856735 136.81982864 44.74437286 135.781091 44.74005127 134.71087646 C44.74567078 133.57676331 44.75129028 132.44265015 44.75708008 131.27416992 C44.75518173 130.07538712 44.75328339 128.87660431 44.75132751 127.64149475 C44.74825745 124.35618092 44.75413024 121.07103288 44.76428056 117.78573775 C44.77307582 114.3430254 44.77130328 110.90031713 44.7709198 107.45759583 C44.77185623 101.67312349 44.78053492 95.88870361 44.79418945 90.10424805 C44.80989244 83.42758078 44.81518828 76.75097105 44.8144539 70.07428664 C44.81377677 62.95556975 44.8207299 55.8368749 44.8299005 48.71816468 C44.8320262 46.67282352 44.83274093 44.62748595 44.83313942 42.58214378 C44.83531076 38.75940468 44.84407302 34.93673733 44.85473633 31.11401367 C44.85428314 29.98597321 44.85382996 28.85793274 44.85336304 27.69570923 C44.91105116 13.53133431 44.91105116 13.53133431 48 9.1875 C54.01226142 4.80355938 60.77622886 4.73731741 68 5 C68 3.68 68 2.36 68 1 C45.56 1 23.12 1 0 1 C0 0.67 0 0.34 0 0 Z " fill="#F1EBD4" transform="translate(129,79)"/>
<path d="M0 0 C2.375 0.875 2.375 0.875 5 3 C7.41504243 9.98281367 7.28687484 17.51237085 7.25878906 24.80859375 C7.2622937 25.94491241 7.26579834 27.08123108 7.26940918 28.25198364 C7.27815851 31.9805526 7.27240133 35.70892936 7.265625 39.4375 C7.2669736 42.04484086 7.26891576 44.65218148 7.27142334 47.25952148 C7.27504947 52.71307427 7.27029958 58.16657268 7.26074219 63.62011719 C7.24986023 69.90152693 7.25338677 76.18280677 7.264395 82.46421337 C7.27460703 88.53720491 7.27347217 94.61013941 7.26763153 100.68313599 C7.26630188 103.25383523 7.26791864 105.82453781 7.27259064 108.39523315 C7.27769653 111.99404554 7.26988848 115.59261207 7.25878906 119.19140625 C7.26283752 120.24313019 7.26688599 121.29485413 7.27105713 122.37844849 C7.17186995 139.82813005 7.17186995 139.82813005 1 146 C0.01 145.67 -0.98 145.34 -2 145 C-1.34 145 -0.68 145 0 145 C0.12117188 144.26136719 0.24234375 143.52273437 0.3671875 142.76171875 C0.61855469 141.23998047 0.61855469 141.23998047 0.875 139.6875 C1.03742187 138.70136719 1.19984375 137.71523437 1.3671875 136.69921875 C1.71356934 134.6743817 2.07273792 132.6509994 2.49187374 130.6399622 C3.86851636 123.82270716 4.27116939 117.35204643 4.21118164 110.40991211 C4.20921028 108.75909134 4.20921028 108.75909134 4.2071991 107.07492065 C4.20076281 103.47563729 4.1803649 99.87657368 4.16015625 96.27734375 C4.15387981 93.76437104 4.14864173 91.25139554 4.14439392 88.73841858 C4.1324944 82.82311951 4.11238451 76.90789892 4.08749622 70.99264103 C4.04028242 59.74779211 4.00773017 48.50291858 3.9829998 37.25799751 C3.97275508 33.56299057 3.95571529 29.86805819 3.93800354 26.17308044 C3.93117994 23.92390001 3.92457111 21.67471891 3.91821289 19.42553711 C3.91147552 18.3933757 3.90473816 17.36121429 3.89779663 16.29777527 C3.89628098 15.36012329 3.89476532 14.42247131 3.89320374 13.45640564 C3.88968431 12.63923537 3.88616488 11.82206511 3.8825388 10.9801321 C4 9 4 9 5 7 C4.01 6.67 3.02 6.34 2 6 C0.8125 2.9375 0.8125 2.9375 0 0 Z " fill="#F2EDD4" transform="translate(48,87)"/>
<path d="M0 0 C10.625 -0.25 10.625 -0.25 14 2 C14.25660094 5.07921132 14.39431504 7.21136993 13 10 C13.66 10.33 14.32 10.66 15 11 C15.125 13.875 15.125 13.875 15 17 C13 19 13 19 9.9609375 19.1953125 C6.640625 19.13020833 3.3203125 19.06510417 0 19 C0 12.73 0 6.46 0 0 Z " fill="#202020" transform="translate(21,260)"/>
<path d="M0 0 C0.33 1.32 0.66 2.64 1 4 C0.34 4 -0.32 4 -1 4 C-1 4.66 -1 5.32 -1 6 C-4.46222615 7.06723961 -7.64039266 7.10173486 -11.25 7.0625 C-12.32765625 7.05347656 -13.4053125 7.04445312 -14.515625 7.03515625 C-15.33546875 7.02355469 -16.1553125 7.01195312 -17 7 C-17 8.32 -17 9.64 -17 11 C5.11 11 27.22 11 50 11 C50 10.01 50 9.02 50 8 C48.845 8.04125 47.69 8.0825 46.5 8.125 C42.05518699 8.14087433 38.26275869 7.21793105 34 6 C34.33 5.34 34.66 4.68 35 4 C37.79236448 4.47535969 40.58384991 4.9551067 43.375 5.4375 C44.1690625 5.57220703 44.963125 5.70691406 45.78125 5.84570312 C51.7734375 6.88671875 51.7734375 6.88671875 54 8 C53.34 9.65 52.68 11.3 52 13 C28.9 13 5.8 13 -18 13 C-18.33 10.69 -18.66 8.38 -19 6 C-17.60974609 5.80083984 -17.60974609 5.80083984 -16.19140625 5.59765625 C-14.99386719 5.42105469 -13.79632813 5.24445313 -12.5625 5.0625 C-11.36753906 4.88847656 -10.17257813 4.71445313 -8.94140625 4.53515625 C-6.12044324 4.31014787 -6.12044324 4.31014787 -5 3 C-3.33382885 2.95936168 -1.66611905 2.957279 0 3 C0 2.01 0 1.02 0 0 Z " fill="#E2D6B8" transform="translate(146,228)"/>
<path d="M0 0 C22.44 0 44.88 0 68 0 C68 1.32 68 2.64 68 4 C65.73044814 4.22185844 63.45926245 4.42705515 61.1875 4.625 C59.29064453 4.79902344 59.29064453 4.79902344 57.35546875 4.9765625 C54 5 54 5 51 3 C51.33 2.67 51.66 2.34 52 2 C38.47 2 24.94 2 11 2 C11.66 2.33 12.32 2.66 13 3 C13 3.66 13 4.32 13 5 C15.64 5.33 18.28 5.66 21 6 C21 6.99 21 7.98 21 9 C21.66 9 22.32 9 23 9 C23 12.63 23 16.26 23 20 C22.67 20 22.34 20 22 20 C21.96003906 19.33613281 21.92007813 18.67226562 21.87890625 17.98828125 C21.25072525 12.60121229 21.25072525 12.60121229 18.25 8.2578125 C12.47929958 4.7747826 6.64281123 4.13658117 0 4 C0 2.68 0 1.36 0 0 Z " fill="#AB9A63" transform="translate(32,80)"/>
<path d="M0 0 C1.485 0.99 1.485 0.99 3 2 C3.36635017 4.25959396 3.36635017 4.25959396 3.35403442 7.13543701 C3.35671326 8.22335541 3.35939209 9.3112738 3.3621521 10.43215942 C3.34979523 11.63113861 3.33743835 12.8301178 3.32470703 14.06542969 C3.32353882 15.32404816 3.32237061 16.58266663 3.32116699 17.87942505 C3.3184574 20.62090736 3.30620955 23.36212523 3.28662491 26.10353851 C3.25564727 30.44038618 3.24533301 34.77713213 3.23776245 39.11407471 C3.22325706 45.97763175 3.19431708 52.841043 3.15951526 59.70452428 C3.09770278 71.98379281 3.05995952 84.26314709 3.02792251 96.54252553 C3.01610836 100.85113646 2.99793175 105.15966065 2.97440743 109.46822309 C2.9638854 111.50606469 2.95560175 113.54390132 2.94824219 115.58175659 C2.93908077 118.06309757 2.92621626 120.54442882 2.90890503 123.02572632 C2.90594421 124.12492401 2.9029834 125.2241217 2.89993286 126.35662842 C2.89511461 127.30716473 2.89029636 128.25770103 2.88533211 129.23704147 C2.93216328 132.08547298 2.93216328 132.08547298 3.6312542 135.16521072 C4 138 4 138 2 141 C2 139.68 2 138.36 2 137 C1.01 136.67 0.02 136.34 -1 136 C-0.67 135.01 -0.34 134.02 0 133 C0.09061574 131.19851282 0.12195458 129.39380606 0.12025452 127.59004211 C0.12162918 126.46683563 0.12300385 125.34362915 0.12442017 124.18638611 C0.12082489 122.95352371 0.11722961 121.72066132 0.11352539 120.45043945 C0.11367142 119.15277649 0.11381744 117.85511353 0.1139679 116.51812744 C0.11425514 112.95848745 0.10837019 109.39888107 0.10139394 105.8392489 C0.09514826 102.11965622 0.09455564 98.40006281 0.09336853 94.6804657 C0.0902588 87.63632227 0.08205023 80.59219434 0.07201904 73.54805773 C0.06084679 65.52879585 0.05534465 57.50953322 0.05032361 49.49026549 C0.03986733 32.99350125 0.02227481 16.4967526 0 0 Z " fill="#A59561" transform="translate(172,90)"/>
<path d="M0 0 C0.66 0 1.32 0 2 0 C1.67 0.99 1.34 1.98 1 3 C0.88044119 5.5389383 0.81476036 8.05257824 0.79467773 10.5925293 C0.78477814 11.36349945 0.77487854 12.1344696 0.76467896 12.92880249 C0.73309044 15.47724333 0.708317 18.02570282 0.68359375 20.57421875 C0.66302194 22.3411355 0.6420254 24.10804736 0.62062073 25.87495422 C0.56542355 30.52572667 0.51600388 35.17654336 0.46777344 39.82739258 C0.40870965 45.40749197 0.3424946 50.98751049 0.27747345 56.56754303 C0.17949353 65.0449793 0.09061725 73.52246742 0 82 C13.2 82 26.4 82 40 82 C40 81.01 40 80.02 40 79 C36.37 79 32.74 79 29 79 C29 78.67 29 78.34 29 78 C32.96 78 36.92 78 41 78 C41 79.65 41 81.3 41 83 C27.14 83 13.28 83 -1 83 C-1.04010881 62.57570298 -1.04010881 62.57570298 -1.04882812 53.90039062 C-1.0548166 47.97012442 -1.06191703 42.03987358 -1.07543945 36.10961914 C-1.08626822 31.33101164 -1.09227681 26.55242062 -1.09487724 21.7738018 C-1.09673151 19.94646381 -1.10035216 18.11912676 -1.10573006 16.29179573 C-1.11294036 13.74146671 -1.11399095 11.19120663 -1.11352539 8.64086914 C-1.11712067 7.87770386 -1.12071594 7.11453857 -1.12442017 6.32824707 C-1.11405216 1.11405216 -1.11405216 1.11405216 0 0 Z " fill="#202020" transform="translate(185,95)"/>
<path d="M0 0 C4.29 0 8.58 0 13 0 C13 0.99 13 1.98 13 3 C9.7 3 6.4 3 3 3 C3 4.98 3 6.96 3 9 C5.97 9 8.94 9 12 9 C12 9.66 12 10.32 12 11 C9.03 11 6.06 11 3 11 C3 12.98 3 14.96 3 17 C6.63 17 10.26 17 14 17 C14 17.99 14 18.98 14 20 C9.38 20 4.76 20 0 20 C0 13.4 0 6.8 0 0 Z " fill="#666666" transform="translate(148,260)"/>
<path d="M0 0 C0.33 0 0.66 0 1 0 C1.19551338 1.60320974 1.38111983 3.20762986 1.5625 4.8125 C1.66691406 5.70582031 1.77132812 6.59914062 1.87890625 7.51953125 C2.08063188 11.65165299 0.47472555 13.87969387 -2 17 C-1.01 18.32 -0.02 19.64 1 21 C-6.59 21 -14.18 21 -22 21 C-22 19.68 -22 18.36 -22 17 C-21.28714844 16.96261719 -20.57429688 16.92523438 -19.83984375 16.88671875 C-11.50733564 16.31723471 -11.50733564 16.31723471 -4 13 C-1.61326619 8.78343693 -0.58397933 4.78863047 0 0 Z " fill="#AE975E" transform="translate(54,218)"/>
<path d="M0 0 C1.81725255 3.11627055 2.2455605 5.36126392 2.22705078 8.95214844 C2.22689972 9.93286316 2.22674866 10.91357788 2.22659302 11.92401123 C2.21627045 12.97518127 2.20594788 14.02635132 2.1953125 15.109375 C2.1924826 16.19132141 2.18965271 17.27326782 2.18673706 18.38800049 C2.17554609 21.84211304 2.1504432 25.29596588 2.125 28.75 C2.11496881 31.09244417 2.1058432 33.43489241 2.09765625 35.77734375 C2.0756103 41.51831771 2.04214334 47.2591403 2 53 C1.34 53 0.68 53 0 53 C0 56.96 0 60.92 0 65 C-0.33 65 -0.66 65 -1 65 C-1.0231793 57.11567432 -1.0409436 49.2313629 -1.05181217 41.34701157 C-1.05702876 37.68591864 -1.06410421 34.02484904 -1.07543945 30.36376953 C-1.0863118 26.83004782 -1.09228607 23.29634854 -1.09487724 19.76261139 C-1.09762169 17.75960042 -1.10542683 15.75659846 -1.11329651 13.75360107 C-1.11337204 12.53263733 -1.11344757 11.31167358 -1.11352539 10.05371094 C-1.115746 8.97893494 -1.11796661 7.90415894 -1.12025452 6.79681396 C-1.01524382 4.35453253 -0.70765164 2.32815483 0 0 Z " fill="#A58F43" transform="translate(74,99)"/>
<path d="M0 0 C4.12638505 2.06319252 5.50114255 3.55148531 8.25 7.125 C8.95640625 8.03507812 9.6628125 8.94515625 10.390625 9.8828125 C11.18726563 10.93082031 11.18726563 10.93082031 12 12 C12.33 8.04 12.66 4.08 13 0 C13.66 0 14.32 0 15 0 C15 5.94 15 11.88 15 18 C11.06686654 16.68895551 9.63242994 14.17504178 7.3125 10.9375 C6.89677734 10.36966797 6.48105469 9.80183594 6.05273438 9.21679688 C5.02859918 7.81596827 4.01342465 6.40859652 3 5 C2.67 9.29 2.34 13.58 2 18 C1.34 18 0.68 18 0 18 C0 12.06 0 6.12 0 0 Z " fill="#535353" transform="translate(119,261)"/>
<path d="M0 0 C22.44 0 44.88 0 68 0 C68 1.32 68 2.64 68 4 C64.04 4.33 60.08 4.66 56 5 C59.08888522 2.94074319 59.70935927 2.7609626 63.1875 2.875 C64.445625 2.91625 65.70375 2.9575 67 3 C67 2.34 67 1.68 67 1 C38.785 1.495 38.785 1.495 10 2 C10.33 2.66 10.66 3.32 11 4 C7.37 4 3.74 4 0 4 C0 2.68 0 1.36 0 0 Z " fill="#B0A271" transform="translate(129,80)"/>
<path d="M0 0 C4.95 0 9.9 0 15 0 C15 1.98 15 3.96 15 6 C-8.43 6 -31.86 6 -56 6 C-56 4.35 -56 2.7 -56 1 C-55.67 2.32 -55.34 3.64 -55 5 C-32.56 5 -10.12 5 13 5 C13 4.01 13 3.02 13 2 C11.783125 2.020625 10.56625 2.04125 9.3125 2.0625 C6.08022678 2.06824116 3.15065259 1.78766315 0 1 C0 0.67 0 0.34 0 0 Z " fill="#DDCEAC" transform="translate(87,234)"/>
<path d="M0 0 C1.65 0 3.3 0 5 0 C5.04639619 7.73664392 5.0819062 15.47327336 5.10362434 23.21002483 C5.11404941 26.80274568 5.12818516 30.39537115 5.15087891 33.98803711 C5.17265303 37.45693203 5.18457823 40.92573537 5.18975449 44.39469337 C5.19523334 46.35834908 5.21083903 48.32196808 5.22659302 50.28556824 C5.22674408 51.4864357 5.22689514 52.68730316 5.22705078 53.92456055 C5.231492 54.97935104 5.23593323 56.03414154 5.24050903 57.12089539 C4.9878393 60.14557433 4.37355243 62.30091419 3 65 C2.01 65.495 2.01 65.495 1 66 C0.67 64.02 0.34 62.04 0 60 C1.98 59.505 1.98 59.505 4 59 C4 41.51 4 24.02 4 6 C2.68 6 1.36 6 0 6 C0 4.02 0 2.04 0 0 Z " fill="#FDFDEE" transform="translate(146,164)"/>
<path d="M0 0 C0.33 0 0.66 0 1 0 C1.01030746 0.72805344 1.02061493 1.45610687 1.03123474 2.20622253 C1.1293305 9.07717937 1.23186183 15.94805734 1.33933926 22.81887341 C1.39443507 26.35097936 1.44783313 29.88309378 1.49731445 33.4152832 C1.55431367 37.47876668 1.61876325 41.54210262 1.68359375 45.60546875 C1.70030624 46.8702153 1.71701874 48.13496185 1.73423767 49.43803406 C1.75418289 50.61888077 1.77412811 51.79972748 1.79467773 53.01635742 C1.81022202 54.05338303 1.8257663 55.09040863 1.84178162 56.15885925 C1.99256904 58.86656164 2.39510882 61.36022509 3 64 C3.99 64 4.98 64 6 64 C6.33 64.66 6.66 65.32 7 66 C7.66 66 8.32 66 9 66 C9 66.99 9 67.98 9 69 C9.99 69.33 10.98 69.66 12 70 C7.98650355 69.71998862 6.27964858 69.24236211 3.1875 66.5625 C-0.03523302 62.78729847 -0.12343844 60.97858826 -0.11352539 56.08154297 C-0.11344986 54.84040741 -0.11337433 53.59927185 -0.11329651 52.32052612 C-0.1081895 50.96107951 -0.1029735 49.60163331 -0.09765625 48.2421875 C-0.09579142 46.85499116 -0.09436782 45.46779416 -0.09336853 44.08059692 C-0.08954848 40.42765488 -0.07972255 36.77475252 -0.06866455 33.12182617 C-0.05843944 29.39502499 -0.05386855 25.66821741 -0.04882812 21.94140625 C-0.03809983 14.62758606 -0.02102954 7.31379859 0 0 Z " fill="#FDF7EC" transform="translate(78,164)"/>
<path d="M0 0 C0.90492188 0.02320313 1.80984375 0.04640625 2.7421875 0.0703125 C4.10730469 0.09738281 4.10730469 0.09738281 5.5 0.125 C6.19867188 0.14820313 6.89734375 0.17140625 7.6171875 0.1953125 C7.2871875 1.1853125 6.9571875 2.1753125 6.6171875 3.1953125 C3.9771875 3.1953125 1.3371875 3.1953125 -1.3828125 3.1953125 C-1.19095273 5.15912665 -1.19095273 5.15912665 -0.3828125 7.1953125 C1.43233455 8.29090065 1.43233455 8.29090065 3.6171875 8.8828125 C7.56731873 10.14544373 7.56731873 10.14544373 8.6171875 11.1953125 C8.90136611 13.89500934 8.94195941 15.60666341 7.6171875 18.0078125 C4.33039567 19.95934515 1.3958178 19.43522554 -2.3828125 19.1953125 C-3.0428125 18.8653125 -3.7028125 18.5353125 -4.3828125 18.1953125 C-4.3828125 17.2053125 -4.3828125 16.2153125 -4.3828125 15.1953125 C-0.7528125 15.5253125 2.8771875 15.8553125 6.6171875 16.1953125 C6.10894327 12.16736155 6.10894327 12.16736155 3.5859375 10.96484375 C2.77125 10.64902344 1.9565625 10.33320313 1.1171875 10.0078125 C-3.34081775 8.23730725 -3.34081775 8.23730725 -4.3828125 7.1953125 C-4.5703125 4.7578125 -4.5703125 4.7578125 -4.3828125 2.1953125 C-2.3828125 0.1953125 -2.3828125 0.1953125 0 0 Z " fill="#3D3D3D" transform="translate(177.3828125,260.8046875)"/>
<path d="M0 0 C0.90492187 0.02320313 1.80984375 0.04640625 2.7421875 0.0703125 C4.10730469 0.09738281 4.10730469 0.09738281 5.5 0.125 C6.19867188 0.14820313 6.89734375 0.17140625 7.6171875 0.1953125 C7.2871875 1.1853125 6.9571875 2.1753125 6.6171875 3.1953125 C3.9771875 3.1953125 1.3371875 3.1953125 -1.3828125 3.1953125 C-1.19095273 5.15912665 -1.19095273 5.15912665 -0.3828125 7.1953125 C1.43233455 8.29090065 1.43233455 8.29090065 3.6171875 8.8828125 C7.56731873 10.14544373 7.56731873 10.14544373 8.6171875 11.1953125 C8.90136611 13.89500934 8.94195941 15.60666341 7.6171875 18.0078125 C4.37729788 19.93149696 1.3346056 19.37813634 -2.3828125 19.1953125 C-3.0428125 17.8753125 -3.7028125 16.5553125 -4.3828125 15.1953125 C-0.7528125 15.5253125 2.8771875 15.8553125 6.6171875 16.1953125 C6.10894327 12.16736155 6.10894327 12.16736155 3.5859375 10.96484375 C2.77125 10.64902344 1.9565625 10.33320313 1.1171875 10.0078125 C-3.34081775 8.23730725 -3.34081775 8.23730725 -4.3828125 7.1953125 C-4.5703125 4.7578125 -4.5703125 4.7578125 -4.3828125 2.1953125 C-2.3828125 0.1953125 -2.3828125 0.1953125 0 0 Z " fill="#404040" transform="translate(81.3828125,260.8046875)"/>
<path d="M0 0 C0.66 0 1.32 0 2 0 C2.06058594 0.99902344 2.12117188 1.99804688 2.18359375 3.02734375 C2.26738281 4.31769531 2.35117187 5.60804688 2.4375 6.9375 C2.51871094 8.22527344 2.59992187 9.51304687 2.68359375 10.83984375 C2.64919188 13.86023957 2.64919188 13.86023957 4 15 C7.5 15.16666667 7.5 15.16666667 11 15 C12.94090826 13.05909174 12.39919435 9.52706098 12.5625 6.9375 C12.64628906 5.64714844 12.73007812 4.35679687 12.81640625 3.02734375 C12.87699219 2.02832031 12.93757813 1.02929688 13 0 C13.66 0 14.32 0 15 0 C15.10853983 2.22808159 15.18583307 4.45769932 15.25 6.6875 C15.29640625 7.92886719 15.3428125 9.17023438 15.390625 10.44921875 C14.93533366 14.58781707 14.00015218 16.16474981 11 19 C7.5 19.625 7.5 19.625 4 19 C0.99984782 16.16474981 0.06466634 14.58781707 -0.390625 10.44921875 C-0.34421875 9.20785156 -0.2978125 7.96648437 -0.25 6.6875 C-0.21390625 5.43324219 -0.1778125 4.17898438 -0.140625 2.88671875 C-0.07101563 1.45779297 -0.07101563 1.45779297 0 0 Z " fill="#454545" transform="translate(49,261)"/>
<path d="M0 0 C1.21816406 0.03480469 1.21816406 0.03480469 2.4609375 0.0703125 C3.68683594 0.09738281 3.68683594 0.09738281 4.9375 0.125 C5.87722656 0.15980469 5.87722656 0.15980469 6.8359375 0.1953125 C6.8359375 0.8553125 6.8359375 1.5153125 6.8359375 2.1953125 C3.8659375 2.1953125 0.8959375 2.1953125 -2.1640625 2.1953125 C-2.1640625 3.8453125 -2.1640625 5.4953125 -2.1640625 7.1953125 C-1.0915625 7.2984375 -0.0190625 7.4015625 1.0859375 7.5078125 C6.41600867 8.48499222 6.41600867 8.48499222 8.8359375 11.1953125 C9.3359375 13.6953125 9.3359375 13.6953125 8.8359375 16.1953125 C6.43277257 18.98298382 4.96218442 19.18423821 1.2734375 19.5078125 C-2.1640625 19.1953125 -2.1640625 19.1953125 -5.1640625 17.1953125 C-5.1640625 16.5353125 -5.1640625 15.8753125 -5.1640625 15.1953125 C-1.5340625 15.1953125 2.0959375 15.1953125 5.8359375 15.1953125 C5.8359375 14.2053125 5.8359375 13.2153125 5.8359375 12.1953125 C0.8859375 10.2153125 0.8859375 10.2153125 -4.1640625 8.1953125 C-4.2890625 5.3203125 -4.2890625 5.3203125 -4.1640625 2.1953125 C-2.1640625 0.1953125 -2.1640625 0.1953125 0 0 Z " fill="#404040" transform="translate(202.1640625,260.8046875)"/>
<path d="M0 0 C1.46730391 0.20582091 2.93223583 0.42914845 4.39453125 0.66796875 C5.14412109 0.77689453 5.89371094 0.88582031 6.66601562 0.99804688 C8.51526474 1.26895598 10.36150386 1.56026932 12.20703125 1.85546875 C12.20703125 2.84546875 12.20703125 3.83546875 12.20703125 4.85546875 C-2.64296875 4.85546875 -17.49296875 4.85546875 -32.79296875 4.85546875 C-32.79296875 4.52546875 -32.79296875 4.19546875 -32.79296875 3.85546875 C-30.33485859 3.68468194 -27.87662231 3.5181194 -25.41796875 3.35546875 C-24.69005127 3.30632324 -23.96213379 3.25717773 -23.2121582 3.20654297 C-18.35395524 2.89769276 -13.5757595 2.82859287 -8.7109375 3.11328125 C-6.66474336 3.06272002 -6.66474336 3.06272002 -5.54296875 1.296875 C-3.79296875 -0.14453125 -3.79296875 -0.14453125 0 0 Z " fill="#A7925A" transform="translate(87.79296875,234.14453125)"/>
<path d="M0 0 C0.5775 0.226875 1.155 0.45375 1.75 0.6875 C-0.30233685 2.9352975 -1.25667261 3.6897242 -4.25 4.6875 C-5.45882096 6.68766466 -5.45882096 6.68766466 -6.25 8.6875 C-6.91 8.6875 -7.57 8.6875 -8.25 8.6875 C-7.92 28.1575 -7.59 47.6275 -7.25 67.6875 C-7.91 67.6875 -8.57 67.6875 -9.25 67.6875 C-9.31959394 59.95089486 -9.37285889 52.21432229 -9.40543652 44.47747517 C-9.42107439 40.88469171 -9.44227779 37.29212285 -9.47631836 33.69946289 C-9.50897965 30.23055609 -9.52686714 26.76185536 -9.53463173 23.29280663 C-9.54285018 21.32911248 -9.56625892 19.36550092 -9.58988953 17.40193176 C-9.59011612 16.2010643 -9.59034271 15.00019684 -9.59057617 13.76293945 C-9.59723801 12.70814896 -9.60389984 11.65335846 -9.61076355 10.56660461 C-9.0821273 6.34777741 -7.33087281 3.73350595 -4.3125 0.8125 C-2.25 -0.3125 -2.25 -0.3125 0 0 Z " fill="#FDF7EA" transform="translate(87.25,85.3125)"/>
<path d="M0 0 C0.33 0 0.66 0 1 0 C1 22.11 1 44.22 1 67 C0.67 67 0.34 67 0 67 C-0.33 64.03 -0.66 61.06 -1 58 C-1.33 60.31 -1.66 62.62 -2 65 C-2.33 65 -2.66 65 -3 65 C-3.05416188 63.39620659 -3.09286638 61.79188594 -3.125 60.1875 C-3.15980469 58.84751953 -3.15980469 58.84751953 -3.1953125 57.48046875 C-3 55 -3 55 -1 52 C-0.6723603 49.59700223 -0.6723603 49.59700223 -0.68115234 46.88598633 C-0.66128265 45.84513382 -0.64141296 44.80428131 -0.62094116 43.73188782 C-0.60938995 42.60993515 -0.59783875 41.48798248 -0.5859375 40.33203125 C-0.55688828 38.60710701 -0.55688828 38.60710701 -0.5272522 36.84733582 C-0.46740239 33.16913301 -0.42104894 29.490899 -0.375 25.8125 C-0.33682524 23.32094978 -0.29777381 20.82941283 -0.2578125 18.33789062 C-0.16169638 12.22537806 -0.07666462 6.11278579 0 0 Z " fill="#A19358" transform="translate(76,163)"/>
<path d="M0 0 C0.680625 0.763125 1.36125 1.52625 2.0625 2.3125 C5.35898525 5.32843331 7.86306835 6.45879017 12 8 C12 9.32 12 10.64 12 12 C10.54176788 12.0270043 9.08339325 12.04639787 7.625 12.0625 C6.81289062 12.07410156 6.00078125 12.08570313 5.1640625 12.09765625 C3 12 3 12 1 11 C0.31867549 9.33927151 -0.34742127 7.672233 -1 6 C-1.66 5.34 -2.32 4.68 -3 4 C-2.67 3.01 -2.34 2.02 -2 1 C-1.34 0.67 -0.68 0.34 0 0 Z " fill="#F0F0F0" transform="translate(76,265)"/>
<path d="M0 0 C1.64574566 -0.02688151 3.29161413 -0.04634123 4.9375 -0.0625 C5.85402344 -0.07410156 6.77054688 -0.08570313 7.71484375 -0.09765625 C10 0 10 0 11 1 C11.04063832 2.66617115 11.042721 4.33388095 11 6 C8.59454362 7.20272819 7.05003047 7.10071472 4.375 7.0625 C3.14910156 7.04896484 3.14910156 7.04896484 1.8984375 7.03515625 C0.95871094 7.01775391 0.95871094 7.01775391 0 7 C0 4.69 0 2.38 0 0 Z " fill="#E4E4E4" transform="translate(23,271)"/>
<path d="M0 0 C3.63 1.65 7.26 3.3 11 5 C11 6.32 11 7.64 11 9 C9.54176788 9.0270043 8.08339325 9.04639787 6.625 9.0625 C5.81289062 9.07410156 5.00078125 9.08570313 4.1640625 9.09765625 C2 9 2 9 0 8 C-0.95067299 4.71585695 -1.10102197 3.30306592 0 0 Z " fill="#F0F0F0" transform="translate(173,268)"/>
<path d="M0 0 C0.33 0.66 0.66 1.32 1 2 C3.70599842 2.47597366 6.33595404 2.84093629 9.0625 3.125 C9.82111328 3.21136719 10.57972656 3.29773438 11.36132812 3.38671875 C13.23996986 3.59939517 15.11988636 3.80075459 17 4 C17 4.99 17 5.98 17 7 C14.58303128 7.05411124 12.16728213 7.09372278 9.75 7.125 C9.06808594 7.14175781 8.38617188 7.15851563 7.68359375 7.17578125 C3.9391765 7.21213482 1.17647273 7.07944349 -2 5 C-1.34 4.34 -0.68 3.68 0 3 C0 2.01 0 1.02 0 0 Z " fill="#A49155" transform="translate(179,232)"/>
<path d="M0 0 C2.24893954 -0.10823773 4.49937575 -0.18569645 6.75 -0.25 C8.00296875 -0.29640625 9.2559375 -0.3428125 10.546875 -0.390625 C14 0 14 0 18 4 C12.06 4 6.12 4 0 4 C0 2.68 0 1.36 0 0 Z " fill="#A9955E" transform="translate(32,235)"/>
<path d="M0 0 C0.99 0 1.98 0 3 0 C3 6.6 3 13.2 3 20 C2.01 20 1.02 20 0 20 C0 13.4 0 6.8 0 0 Z " fill="#5F5F5F" transform="translate(102,260)"/>
<path d="M0 0 C-1.265625 1.4921875 -1.265625 1.4921875 -3 3 C-4.95208421 3.06506947 -6.90782552 3.11857007 -8.859375 3.0390625 C-11.98812769 2.98196847 -14.91781969 3.48630328 -18 4 C-18.2475 4.78375 -18.495 5.5675 -18.75 6.375 C-20.15389099 9.32317108 -21.00675737 9.9024777 -24 11 C-23.67639102 8.08751918 -23.16758806 6.24439925 -21.5 3.8125 C-15.28960288 -0.69003791 -7.37369166 -0.27709071 0 0 Z " fill="#F7F4E0" transform="translate(199,84)"/>
<path d="M0 0 C2.64 0.66 5.28 1.32 8 2 C8.33 3.32 8.66 4.64 9 6 C7.12356239 7.87643761 4.50194299 7.17984987 2.0078125 7.23046875 C0 7 0 7 -3 5 C-2.01 3.35 -1.02 1.7 0 0 Z " fill="#F3F3F3" transform="translate(200,270)"/>
<path d="M0 0 C2.97 0 5.94 0 9 0 C9.33 1.65 9.66 3.3 10 5 C6.78548731 6.60725635 3.56387464 6.05748185 0 6 C0 4.02 0 2.04 0 0 Z " fill="#EFEFEF" transform="translate(23,263)"/>
<path d="M0 0 C0.66 0 1.32 0 2 0 C2 0.99 2 1.98 2 3 C1.01 3.33 0.02 3.66 -1 4 C-2.20882096 6.00016466 -2.20882096 6.00016466 -3 8 C-5.97 7.505 -5.97 7.505 -9 7 C-9 5.35 -9 3.7 -9 2 C-2.25 0.875 -2.25 0.875 0 2 C0 1.34 0 0.68 0 0 Z " fill="#DCDCDC" transform="translate(209,261)"/>
<path d="M0 0 C2.475 0.99 2.475 0.99 5 2 C5 2.66 5 3.32 5 4 C7.64 4.33 10.28 4.66 13 5 C13 5.99 13 6.98 13 8 C13.66 8 14.32 8 15 8 C15 11.63 15 15.26 15 19 C14.67 19 14.34 19 14 19 C13.96003906 18.33613281 13.92007813 17.67226562 13.87890625 16.98828125 C13.25072525 11.60121229 13.25072525 11.60121229 10.25 7.2578125 C4.47929958 3.7747826 -1.35718877 3.13658117 -8 3 C-8 2.67 -8 2.34 -8 2 C-6.865625 1.855625 -5.73125 1.71125 -4.5625 1.5625 C-1.19222799 1.38828522 -1.19222799 1.38828522 0 0 Z " fill="#B4A875" transform="translate(40,81)"/>
<path d="M0 0 C0.99 0.33 1.98 0.66 3 1 C2.34 2.65 1.68 4.3 1 6 C-11.54 6 -24.08 6 -37 6 C-37 5.67 -37 5.34 -37 5 C-24.79 5 -12.58 5 0 5 C0 3.35 0 1.7 0 0 Z " fill="#FCF8E8" transform="translate(197,235)"/>
<path d="M0 0 C2.97 0 5.94 0 9 0 C8.67 1.98 8.34 3.96 8 6 C6.02 6 4.04 6 2 6 C1.34 4.02 0.68 2.04 0 0 Z " fill="#272727" transform="translate(103,172)"/>
<path d="M0 0 C0.66 0 1.32 0 2 0 C2.04898438 0.98742187 2.09796875 1.97484375 2.1484375 2.9921875 C2.22320312 4.27351563 2.29796875 5.55484375 2.375 6.875 C2.44460937 8.15117187 2.51421875 9.42734375 2.5859375 10.7421875 C2.67241106 14.08061699 2.67241106 14.08061699 5 16 C7.57061311 16.64767793 7.57061311 16.64767793 10 17 C10 17.33 10 17.66 10 18 C6.6875 18.25 6.6875 18.25 3 18 C0.33915287 15.58104807 0.01338843 14.15780496 -0.29296875 10.546875 C-0.25816406 9.29390625 -0.22335938 8.0409375 -0.1875 6.75 C-0.16042969 5.48671875 -0.13335937 4.2234375 -0.10546875 2.921875 C-0.07066406 1.95765625 -0.03585938 0.9934375 0 0 Z " fill="#242424" transform="translate(49,261)"/>
<path d="M0 0 C1.77007714 -0.08114106 3.54122098 -0.13925505 5.3125 -0.1875 C6.29863281 -0.22230469 7.28476562 -0.25710938 8.30078125 -0.29296875 C11 0 11 0 12.85546875 1.51171875 C13.23316406 2.00285156 13.61085938 2.49398438 14 3 C10.90521121 4.03159626 9.47368607 3.97482862 6.3125 3.5625 C5.50425781 3.46066406 4.69601563 3.35882813 3.86328125 3.25390625 C3.24839844 3.17011719 2.63351563 3.08632813 2 3 C2 4.98 2 6.96 2 9 C1.67 9 1.34 9 1 9 C0.67 6.03 0.34 3.06 0 0 Z " fill="#676767" transform="translate(21,260)"/>
<path d="M0 0 C0.99 0.33 1.98 0.66 3 1 C3 1.66 3 2.32 3 3 C4.32 3 5.64 3 7 3 C7 3.66 7 4.32 7 5 C12.57830016 5.12469099 12.57830016 5.12469099 18 4 C18.99 5.32 19.98 6.64 21 8 C6.63445255 7.38189781 6.63445255 7.38189781 2 4 C0.625 1.8125 0.625 1.8125 0 0 Z " fill="#FAF3E8" transform="translate(176,227)"/>
<path d="M0 0 C0.66 0 1.32 0 2 0 C2.21620175 2.6664882 2.30894168 4.44004321 1 6.8125 C-2.23988962 8.73618446 -5.2825819 8.18282384 -9 8 C-9.66 6.68 -10.32 5.36 -11 4 C-7.37 4.33 -3.74 4.66 0 5 C0 3.35 0 1.7 0 0 Z " fill="#2F2F2F" transform="translate(88,272)"/>
<path d="M0 0 C0.66 0 1.32 0 2 0 C2.125 4.75 2.125 4.75 1 7 C1.66 7.33 2.32 7.66 3 8 C2.67 9.65 2.34 11.3 2 13 C1.77570312 12.35546875 1.55140625 11.7109375 1.3203125 11.046875 C0.17110544 8.75611148 0.17110544 8.75611148 -2.3828125 8.390625 C-3.74019531 8.32101562 -3.74019531 8.32101562 -5.125 8.25 C-6.03507812 8.19328125 -6.94515625 8.1365625 -7.8828125 8.078125 C-8.58148437 8.05234375 -9.28015625 8.0265625 -10 8 C-10 7.34 -10 6.68 -10 6 C-6.7 5.67 -3.4 5.34 0 5 C0 3.35 0 1.7 0 0 Z " fill="#424242" transform="translate(33,263)"/>
<path d="M0 0 C1.98 0.99 1.98 0.99 4 2 C3.67 2.99 3.34 3.98 3 5 C2.77548542 7.22574335 2.59217122 9.45581519 2.4375 11.6875 C2.35371094 12.86699219 2.26992187 14.04648437 2.18359375 15.26171875 C2.12300781 16.16535156 2.06242187 17.06898438 2 18 C1.34 18 0.68 18 0 18 C0 12.06 0 6.12 0 0 Z " fill="#212121" transform="translate(119,261)"/>
<path d="M0 0 C0.33 1.32 0.66 2.64 1 4 C0.34 4 -0.32 4 -1 4 C-1 4.66 -1 5.32 -1 6 C-4.46222615 7.06723961 -7.64039266 7.10173486 -11.25 7.0625 C-12.32765625 7.05347656 -13.4053125 7.04445312 -14.515625 7.03515625 C-15.33546875 7.02355469 -16.1553125 7.01195312 -17 7 C-13.35961445 5.01506572 -10.10704876 4.5424404 -6 4 C-5.67 3.67 -5.34 3.34 -5 3 C-3.33382885 2.95936168 -1.66611905 2.957279 0 3 C0 2.01 0 1.02 0 0 Z " fill="#EEE9D2" transform="translate(146,228)"/>
<path d="M0 0 C1.485 0.99 1.485 0.99 3 2 C3 3.32 3 4.64 3 6 C3.99 6 4.98 6 6 6 C6.33 6.66 6.66 7.32 7 8 C7.66 8 8.32 8 9 8 C9 8.99 9 9.98 9 11 C9.99 11.33 10.98 11.66 12 12 C8.15891922 11.73201762 6.263979 11.205317 3.1875 8.8125 C0.794683 5.736021 0.26798238 3.84108078 0 0 Z " fill="#F6F1DC" transform="translate(78,222)"/>
<path d="M0 0 C3.96 0 7.92 0 12 0 C12 0.99 12 1.98 12 3 C8.98131566 4.50934217 6.32702771 4.17510672 3 4 C2.01 3.34 1.02 2.68 0 2 C0 1.34 0 0.68 0 0 Z " fill="#6A6A6A" transform="translate(197,276)"/>
<path d="M0 0 C4.95 0 9.9 0 15 0 C15 1.98 15 3.96 15 6 C14.34 6 13.68 6 13 6 C13 4.68 13 3.36 13 2 C11.783125 2.020625 10.56625 2.04125 9.3125 2.0625 C6.08022678 2.06824116 3.15065259 1.78766315 0 1 C0 0.67 0 0.34 0 0 Z " fill="#DED5BB" transform="translate(87,234)"/>
<path d="M0 0 C4.875 2.625 4.875 2.625 6 6 C6.23188622 8.72331488 6.13093368 11.25039269 6 14 C5.34 14.66 4.68 15.32 4 16 C3.875 9.25 3.875 9.25 5 7 C4.01 6.67 3.02 6.34 2 6 C0.8125 2.9375 0.8125 2.9375 0 0 Z " fill="#F8F4E4" transform="translate(48,87)"/>
<path d="M0 0 C0.33 0 0.66 0 1 0 C1 1.65 1 3.3 1 5 C1.66 5 2.32 5 3 5 C3 6.32 3 7.64 3 9 C2.34 9 1.68 9 1 9 C1.33 9.99 1.66 10.98 2 12 C1.01 12 0.02 12 -1 12 C-1.02687279 10.18757948 -1.04633715 8.37504767 -1.0625 6.5625 C-1.07410156 5.55316406 -1.08570313 4.54382813 -1.09765625 3.50390625 C-1 1 -1 1 0 0 Z " fill="#A78F46" transform="translate(170,90)"/>
<path d="M0 0 C1.47919922 0.06960937 1.47919922 0.06960937 2.98828125 0.140625 C3.98214844 0.17671875 4.97601563 0.2128125 6 0.25 C7.13888672 0.31960937 7.13888672 0.31960937 8.30078125 0.390625 C8.30078125 1.050625 8.30078125 1.710625 8.30078125 2.390625 C6.53056803 2.727236 4.75958451 3.05979793 2.98828125 3.390625 C1.50908203 3.6690625 1.50908203 3.6690625 0 3.953125 C-2.69921875 4.390625 -2.69921875 4.390625 -5.69921875 4.390625 C-4.03190196 1.4998505 -3.38689549 0.49014407 0 0 Z " fill="#AA985E" transform="translate(187.69921875,80.609375)"/>
<path d="M0 0 C3.3 0.33 6.6 0.66 10 1 C10 1.99 10 2.98 10 4 C2.25 4.125 2.25 4.125 0 3 C0 2.01 0 1.02 0 0 Z " fill="#6E6E6E" transform="translate(173,276)"/>
<path d="M0 0 C0.33 0.99 0.66 1.98 1 3 C0.360625 3.12375 -0.27875 3.2475 -0.9375 3.375 C-1.618125 3.58125 -2.29875 3.7875 -3 4 C-3.33 4.66 -3.66 5.32 -4 6 C-5.64363134 6.72159424 -7.31050386 7.39351421 -9 8 C-9 6.02 -9 4.04 -9 2 C-6.03 2 -3.06 2 0 2 C0 1.34 0 0.68 0 0 Z " fill="#EBEBEB" transform="translate(160,269)"/>
<path d="M0 0 C0.33 0 0.66 0 1 0 C1.054348 2.0622048 1.09294961 4.12482816 1.125 6.1875 C1.14820313 7.33605469 1.17140625 8.48460938 1.1953125 9.66796875 C1.00484152 12.91740372 0.39360127 15.08660521 -1 18 C-1.99 17.01 -2.98 16.02 -4 15 C-3 13 -2 11 -1 9 C-0.77532169 7.46331135 -0.59203195 5.92031946 -0.4375 4.375 C-0.35371094 3.55773437 -0.26992187 2.74046875 -0.18359375 1.8984375 C-0.12300781 1.27195312 -0.06242188 0.64546875 0 0 Z " fill="#242424" transform="translate(141,96)"/>
<path d="M0 0 C0.66 0.33 1.32 0.66 2 1 C2.88185872 4.43924903 3 7.46807581 3 11 C2.01 12.485 2.01 12.485 1 14 C1 12.35 1 10.7 1 9 C0.01 8.67 -0.98 8.34 -2 8 C-1.34 5.36 -0.68 2.72 0 0 Z " fill="#DBDBDB" transform="translate(35,262)"/>
<path d="M0 0 C-0.33 0.99 -0.66 1.98 -1 3 C-2.43640171 3.19573608 -3.87419504 3.38127816 -5.3125 3.5625 C-6.11300781 3.66691406 -6.91351563 3.77132812 -7.73828125 3.87890625 C-10 4 -10 4 -13 3 C-13 2.34 -13 1.68 -13 1 C-11.39602723 0.83147753 -9.7918131 0.66525114 -8.1875 0.5 C-7.29417969 0.4071875 -6.40085938 0.314375 -5.48046875 0.21875 C-3 0 -3 0 0 0 Z " fill="#A38E4C" transform="translate(145,235)"/>
<path d="M0 0 C0.33 0 0.66 0 1 0 C1.66 3.3 2.32 6.6 3 10 C2.34 8.68 1.68 7.36 1 6 C0.34 6 -0.32 6 -1 6 C-0.67 7.32 -0.34 8.64 0 10 C-1.32 10.33 -2.64 10.66 -4 11 C-2.7874262 7.27566618 -1.49140021 3.62197194 0 0 Z " fill="#DEDEDE" transform="translate(133,126)"/>
<path d="M0 0 C0.33 0 0.66 0 1 0 C1.33 1.98 1.66 3.96 2 6 C4.64 6.33 7.28 6.66 10 7 C10 7.33 10 7.66 10 8 C6.04 8 2.08 8 -2 8 C-1.125 2.25 -1.125 2.25 0 0 Z " fill="#393938" transform="translate(150,62)"/>
<path d="M0 0 C0.33 0 0.66 0 1 0 C1.22331199 1.58129029 1.42804644 3.16521089 1.625 4.75 C1.74101563 5.63171875 1.85703125 6.5134375 1.9765625 7.421875 C2.00207817 10.22859878 1.44843844 11.63384866 0 14 C-1.32 13.67 -2.64 13.34 -4 13 C-3.525625 11.96875 -3.05125 10.9375 -2.5625 9.875 C-1.15477612 6.61465838 -0.43164502 3.53948917 0 0 Z " fill="#B3A472" transform="translate(54,218)"/>
<path d="M0 0 C2.60491661 0.1814661 5.05681623 0.46276386 7.625 0.875 C8.33140625 0.97941406 9.0378125 1.08382812 9.765625 1.19140625 C11.51192414 1.45099126 13.25618599 1.72421433 15 2 C15 2.33 15 2.66 15 3 C12.73044814 3.22185844 10.45926245 3.42705515 8.1875 3.625 C6.29064453 3.79902344 6.29064453 3.79902344 4.35546875 3.9765625 C1 4 1 4 -2 2 C-1.34 1.34 -0.68 0.68 0 0 Z " fill="#B3A170" transform="translate(85,81)"/>
<path d="M0 0 C0.33 0 0.66 0 1 0 C1 5.94 1 11.88 1 18 C0.01 17.67 -0.98 17.34 -2 17 C-2.33 16.01 -2.66 15.02 -3 14 C-2.01 14 -1.02 14 0 14 C0 9.38 0 4.76 0 0 Z " fill="#141414" transform="translate(133,261)"/>
<path d="M0 0 C2.64 0.66 5.28 1.32 8 2 C8.33 3.32 8.66 4.64 9 6 C8.01 5.34 7.02 4.68 6 4 C4.02 4.99 4.02 4.99 2 6 C1.34 4.02 0.68 2.04 0 0 Z " fill="#DCDCDC" transform="translate(200,270)"/>
<path d="M0 0 C0.66 0.33 1.32 0.66 2 1 C2.625 4.0625 2.625 4.0625 3 7 C1.02 7.33 -0.96 7.66 -3 8 C-1.125 2.25 -1.125 2.25 0 0 Z " fill="#DFDFE0" transform="translate(164,59)"/>
<path d="M0 0 C3.465 1.485 3.465 1.485 7 3 C6.01 3.33 5.02 3.66 4 4 C4 4.66 4 5.32 4 6 C3.01 6 2.02 6 1 6 C0.67 6.66 0.34 7.32 0 8 C-0.79953138 4.71303767 -1.09658936 3.28976808 0 0 Z " fill="#E3E3E3" transform="translate(173,268)"/>
<path d="M0 0 C0.66 0.33 1.32 0.66 2 1 C-0.46153846 6.66153846 -0.46153846 6.66153846 -3.1875 8.375 C-3.785625 8.58125 -4.38375 8.7875 -5 9 C-4.5206753 4.68607774 -3.2542015 2.83430453 0 0 Z " fill="#EAE3C9" transform="translate(180,86)"/>
<path d="M0 0 C0.5775 0.226875 1.155 0.45375 1.75 0.6875 C-0.30233685 2.9352975 -1.25667261 3.6897242 -4.25 4.6875 C-4.91 5.3475 -5.57 6.0075 -6.25 6.6875 C-6.91 6.6875 -7.57 6.6875 -8.25 6.6875 C-6.65594781 2.8352072 -4.57967475 -0.63606594 0 0 Z " fill="#E8E0C6" transform="translate(87.25,85.3125)"/>
<path d="M0 0 C0.66 0.33 1.32 0.66 2 1 C-2.74144487 7.04942966 -2.74144487 7.04942966 -5 9 C-5.66 9 -6.32 9 -7 9 C-5.64978174 4.58110387 -3.73884332 2.65654657 0 0 Z " fill="#D7D7D7" transform="translate(209,12)"/>
<path d="M0 0 C0.33 0 0.66 0 1 0 C0.9129995 1.62600941 0.8048219 3.25089678 0.6875 4.875 C0.62949219 5.77992188 0.57148438 6.68484375 0.51171875 7.6171875 C0 10 0 10 -3 12 C-3.33 10.02 -3.66 8.04 -4 6 C-2.68 5.67 -1.36 5.34 0 5 C0 3.35 0 1.7 0 0 Z " fill="#F9F5E1" transform="translate(150,218)"/>
<path d="M0 0 C3.3 0 6.6 0 10 0 C9.67 0.99 9.34 1.98 9 3 C6.03 3 3.06 3 0 3 C0 2.01 0 1.02 0 0 Z " fill="#585858" transform="translate(175,261)"/>
<path d="M0 0 C3.3 0 6.6 0 10 0 C9.67 0.99 9.34 1.98 9 3 C6.03 3 3.06 3 0 3 C0 2.01 0 1.02 0 0 Z " fill="#585858" transform="translate(79,261)"/>
<path d="M0 0 C0.33 0 0.66 0 1 0 C1.33 2.97 1.66 5.94 2 9 C1.01 9.66 0.02 10.32 -1 11 C-1.99 10.67 -2.98 10.34 -4 10 C-3.01 9.67 -2.02 9.34 -1 9 C-0.67 6.03 -0.34 3.06 0 0 Z " fill="#A88F4A" transform="translate(152,226)"/>
<path d="M0 0 C0.33 0.99 0.66 1.98 1 3 C1.66 3.33 2.32 3.66 3 4 C2.67 4.99 2.34 5.98 2 7 C0.35 7.33 -1.3 7.66 -3 8 C-1.125 2.25 -1.125 2.25 0 0 Z " fill="#242424" transform="translate(172,14)"/>
<path d="M0 0 C2.97 0.33 5.94 0.66 9 1 C9.33 1.99 9.66 2.98 10 4 C7.36 4 4.72 4 2 4 C1.34 2.68 0.68 1.36 0 0 Z " fill="#818181" transform="translate(77,276)"/>
<path d="M0 0 C1.32 0.66 2.64 1.32 4 2 C3.67 2.66 3.34 3.32 3 4 C3.66 4.66 4.32 5.32 5 6 C3.35 5.67 1.7 5.34 0 5 C-0.5625 3.0625 -0.5625 3.0625 -1 1 C-0.67 0.67 -0.34 0.34 0 0 Z " fill="#DFDFDF" transform="translate(176,263)"/>
<path d="M0 0 C1.32 0.66 2.64 1.32 4 2 C3.67 2.66 3.34 3.32 3 4 C3.66 4.66 4.32 5.32 5 6 C3.35 5.67 1.7 5.34 0 5 C-0.5625 3.0625 -0.5625 3.0625 -1 1 C-0.67 0.67 -0.34 0.34 0 0 Z " fill="#E0E0E0" transform="translate(80,263)"/>
<path d="M0 0 C2.97 0 5.94 0 9 0 C9 0.33 9 0.66 9 1 C7.02 1 5.04 1 3 1 C3 1.66 3 2.32 3 3 C3.99 3.33 4.98 3.66 6 4 C4.02 4 2.04 4 0 4 C0 2.68 0 1.36 0 0 Z " fill="#AF9F6F" transform="translate(129,235)"/>
<path d="M0 0 C0.99 0.495 0.99 0.495 2 1 C2 1.66 2 2.32 2 3 C4.475 3.99 4.475 3.99 7 5 C7 5.33 7 5.66 7 6 C4.69 6 2.38 6 0 6 C0 4.02 0 2.04 0 0 Z " fill="#B2A06E" transform="translate(79,228)"/>
<path d="M0 0 C0.99 0.33 1.98 0.66 3 1 C3 1.66 3 2.32 3 3 C4.32 3 5.64 3 7 3 C7 3.66 7 4.32 7 5 C7.99 5.33 8.98 5.66 10 6 C9.01 6.495 9.01 6.495 8 7 C2.5229794 4.83201268 2.5229794 4.83201268 0.625 1.8125 C0.41875 1.214375 0.2125 0.61625 0 0 Z " fill="#EFE6D1" transform="translate(176,227)"/>
<path d="M0 0 C2.31 0.33 4.62 0.66 7 1 C6.01 1.33 5.02 1.66 4 2 C4 2.66 4 3.32 4 4 C3.01 4 2.02 4 1 4 C0.67 4.66 0.34 5.32 0 6 C0 4.02 0 2.04 0 0 Z " fill="#EAEAEA" transform="translate(77,270)"/>
<path d="M0 0 C1.61949011 2.57213134 2.04408751 3.67669159 1.625 6.75 C1.41875 7.4925 1.2125 8.235 1 9 C0.896875 8.360625 0.79375 7.72125 0.6875 7.0625 C0.460625 6.381875 0.23375 5.70125 0 5 C-0.99 4.67 -1.98 4.34 -3 4 C-2.67 3.01 -2.34 2.02 -2 1 C-1.34 1.33 -0.68 1.66 0 2 C0 1.34 0 0.68 0 0 Z " fill="#AE9E62" transform="translate(174,222)"/>
<path d="M0 0 C0.33 0 0.66 0 1 0 C1.042721 1.66611905 1.04063832 3.33382885 1 5 C0.67 5.33 0.34 5.66 0 6 C-0.36760731 8.32817964 -0.70241581 10.6618385 -1 13 C-1.33 13 -1.66 13 -2 13 C-2.05416188 11.39620659 -2.09286638 9.79188594 -2.125 8.1875 C-2.14820312 7.29417969 -2.17140625 6.40085938 -2.1953125 5.48046875 C-2 3 -2 3 0 0 Z " fill="#A38C45" transform="translate(75,215)"/>
<path d="M0 0 C0.33 0.99 0.66 1.98 1 3 C-0.4375 5.6875 -0.4375 5.6875 -2 8 C-5 4.25 -5 4.25 -5 2 C-3.68 2 -2.36 2 -1 2 C-0.67 1.34 -0.34 0.68 0 0 Z " fill="#DCDCDC" transform="translate(117,132)"/>
<path d="M0 0 C0.66 0 1.32 0 2 0 C1.67 0.99 1.34 1.98 1 3 C0.77548542 5.22574335 0.59217122 7.45581519 0.4375 9.6875 C0.35371094 10.86699219 0.26992187 12.04648438 0.18359375 13.26171875 C0.12300781 14.16535156 0.06242188 15.06898437 0 16 C-0.33 16 -0.66 16 -1 16 C-1.02685095 13.52076199 -1.04676547 11.0418116 -1.0625 8.5625 C-1.07506836 7.50192383 -1.07506836 7.50192383 -1.08789062 6.41992188 C-1.09653588 4.61306441 -1.05220011 2.80612397 -1 1 C-0.67 0.67 -0.34 0.34 0 0 Z " fill="#1D1D1D" transform="translate(185,95)"/>
<path d="M0 0 C0.99 0.33 1.98 0.66 3 1 C2.01 4.3 1.02 7.6 0 11 C-0.33 11 -0.66 11 -1 11 C-1.0270043 9.54176788 -1.04639787 8.08339325 -1.0625 6.625 C-1.07410156 5.81289062 -1.08570312 5.00078125 -1.09765625 4.1640625 C-1 2 -1 2 0 0 Z " fill="#AB9C6A" transform="translate(78,87)"/>
<path d="M0 0 C0.66 0 1.32 0 2 0 C2.28875 0.78375 2.5775 1.5675 2.875 2.375 C3.84912254 5.09671632 3.84912254 5.09671632 6 7 C1.125 6.125 1.125 6.125 0 5 C-0.04063832 3.33382885 -0.042721 1.66611905 0 0 Z " fill="#303030" transform="translate(173,263)"/>
<path d="M0 0 C3 3.625 3 3.625 3 7 C2.01 7 1.02 7 0 7 C-1.125 2.25 -1.125 2.25 0 0 Z " fill="#202020" transform="translate(78,62)"/>
<path d="M0 0 C2.31 0 4.62 0 7 0 C7 0.99 7 1.98 7 3 C4.0625 2.625 4.0625 2.625 1 2 C0.67 1.34 0.34 0.68 0 0 Z " fill="#A29262" transform="translate(93,236)"/>
<path d="M0 0 C2 1 2 1 3 2 C3.04063832 3.66617115 3.042721 5.33388095 3 7 C1.0625 6.25 1.0625 6.25 -1 5 C-1.75 2.875 -1.75 2.875 -2 1 C-1.34 0.67 -0.68 0.34 0 0 Z " fill="#A58F44" transform="translate(54,84)"/>
<path d="M0 0 C0 0.99 0 1.98 0 3 C0.99 3 1.98 3 3 3 C3.33 3.99 3.66 4.98 4 6 C0.62496331 4.8141763 -1.64722731 3.72426311 -4 1 C-2 0 -2 0 0 0 Z " fill="#AC9D65" transform="translate(144,82)"/>
<path d="M0 0 C1.32 0.33 2.64 0.66 4 1 C4.33 2.98 4.66 4.96 5 7 C4.34 7 3.68 7 3 7 C2.01 4.69 1.02 2.38 0 0 Z " fill="#DEDEDE" transform="translate(67,38)"/>
</svg>
